<svg width="456" height="456" viewBox="0 0 456 456" fill="none" xmlns="http://www.w3.org/2000/svg">
<g clip-path="url(#clip0_439_1935)">
<path d="M73.9558 195.337C74.0906 196.06 74.0906 196.784 74.0906 197.674C70.8968 198.438 68.6855 200.183 68.969 203.913C69.1889 206.805 70.7427 208.737 73.5047 210.135C73.5198 206.286 75.2586 203.773 78.6922 202.204C79.0351 202.886 79.3494 203.511 79.7333 204.274C79.2929 204.577 78.814 204.779 78.518 205.134C77.7101 206.103 76.6979 207.031 76.2771 208.165C75.4257 210.459 76.1333 211.301 78.5294 211.584C81.5689 211.943 84.5278 211.654 87.7835 210.702C86.2551 210.009 85.0145 209.446 83.4319 208.728C84.2793 208.044 84.8163 207.51 85.4431 207.121C90.1608 204.19 95.4162 202.847 100.837 202.094C111.175 200.656 121.574 201.539 131.945 201.416C133.388 201.399 134.865 201.617 136.274 201.947C145.544 204.114 152.251 212.544 152.256 221.947C152.261 231.761 145.845 239.894 136.184 242.143C134.126 242.622 131.971 242.873 129.858 242.894C121.433 242.977 113.007 242.928 104.581 242.928C103.987 242.928 103.393 242.928 102.799 242.928C102.706 242.767 102.614 242.606 102.521 242.444C103.956 241.028 105.39 239.612 106.858 238.164C105.575 237.797 104.196 237.403 102.584 236.942C102.944 236.556 103.176 236.202 103.499 235.977C106.625 233.799 110.005 233.363 113.559 234.706C114.863 235.199 116.11 235.865 117.328 236.551C121.504 238.901 125.935 238.982 130.371 237.761C134.583 236.602 137.433 232.482 137.461 228.122C137.488 224.099 134.65 220.099 130.713 218.685C130.637 219.183 130.563 219.666 130.438 220.485C127.65 220.485 124.866 220.455 122.083 220.512C121.582 220.523 120.841 220.749 120.629 221.117C117.841 225.962 113.358 228.093 108.128 229.018C104.297 229.696 100.762 230.963 97.7948 233.898C97.1507 233.374 96.5231 232.865 95.8025 232.279C98.8664 229.017 102.673 227.604 106.782 226.627C109.263 226.038 111.773 225.277 114.03 224.122C115.693 223.271 116.967 221.658 118.686 220.144C117.159 219.611 116.173 219.232 115.162 218.938C114.912 218.865 114.458 218.972 114.306 219.162C111.827 222.277 108.303 223.45 104.637 224.12C100.201 224.931 96.3 226.663 92.9463 229.924C92.2629 229.369 91.6336 228.858 90.9116 228.272C94.2763 225.022 98.0536 222.923 102.517 221.935C104.959 221.394 107.346 220.542 109.688 219.646C110.629 219.285 111.381 218.43 112.219 217.8C112.204 217.591 112.189 217.383 112.174 217.174C111.425 217.065 110.622 216.727 109.934 216.886C106.589 217.656 103.332 217.278 100.165 216.187C99.6032 215.994 99.3529 214.895 98.8299 213.993C98.637 214.11 98.1478 214.393 97.673 214.698C92.8571 217.79 87.7066 219.569 81.8963 218.627C78.9236 218.145 76.5852 216.64 74.8985 214.109C74.5832 213.636 74.0763 213.176 73.5553 212.973C70.0306 211.602 67.6359 209.206 66.4481 205.499C66.3365 204.318 66.3365 203.185 66.4394 201.833C67.2436 200.31 67.7065 198.766 68.7107 197.765C69.7895 196.69 71.3767 196.125 72.7421 195.337C73.1017 195.337 73.4613 195.337 73.9558 195.337ZM89.5693 212.744C85.947 213.391 82.3247 214.039 78.8715 214.656C81.5414 217.831 90.5759 216.411 94.0349 213.656C92.5018 213.386 91.523 211.743 89.5693 212.744ZM93.5737 206.539C93.7305 207.123 93.756 207.808 94.0957 208.253C94.2842 208.499 95.2563 208.545 95.4218 208.33C95.7927 207.85 96.2134 206.999 96.0179 206.571C95.5068 205.452 94.5746 205.544 93.5737 206.539Z" fill="#03B2EB"/>
<path d="M322.359 260.405C322.225 257.565 322.225 254.726 322.225 251.938C323.787 251.326 324.562 251.755 324.979 253.198C325.378 254.578 325.984 255.898 326.666 257.678C327.346 255.91 327.97 254.545 328.39 253.12C328.77 251.829 329.487 251.412 330.76 251.777C330.76 254.545 330.76 257.342 330.706 260.272C330.293 260.405 329.934 260.405 329.459 260.249C329.344 258.629 329.344 257.164 329.344 255.422C328.448 257.283 327.696 258.844 326.945 260.404C326.692 260.405 326.439 260.405 326.055 260.277C325.372 258.626 324.819 257.103 324.17 255.314C323.941 257.265 323.757 258.835 323.573 260.405C323.214 260.405 322.854 260.405 322.359 260.405Z" fill="#0DB5EC"/>
<path d="M237.063 260.404C236.928 257.555 236.928 254.705 236.928 251.93C238.267 251.368 238.998 251.771 239.585 252.811C240.368 254.198 241.258 255.525 242.442 256.775C242.442 255.129 242.442 253.483 242.442 251.762C243.05 251.762 243.479 251.762 244.201 251.762C244.201 254.562 244.201 257.339 244.273 260.26C244.345 260.404 244.176 260.404 244.006 260.317C242.679 260.361 242.001 259.786 241.456 258.807C240.695 257.439 239.808 256.141 238.862 254.633C238.642 256.797 238.459 258.601 238.276 260.404C237.917 260.404 237.557 260.404 237.063 260.404Z" fill="#10B6EC"/>
<path d="M373.965 260.404C373.807 257.569 373.807 254.733 373.807 251.664C375.933 251.664 377.811 251.631 379.686 251.702C379.949 251.711 380.192 252.229 380.444 252.512C380.144 252.751 379.858 253.174 379.544 253.196C378.38 253.279 377.207 253.229 375.85 253.229C375.819 253.831 375.793 254.338 375.76 254.989C377.128 254.989 378.341 254.989 379.564 254.989C380.209 256.349 379.641 256.665 378.482 256.61C377.654 256.57 376.823 256.602 375.835 256.602C375.799 257.319 375.769 257.905 375.726 258.739C376.985 258.739 378.144 258.802 379.293 258.721C380.414 258.642 380.682 259.146 380.52 260.261C378.407 260.404 376.265 260.404 373.965 260.404Z" fill="#27BDEE"/>
<path d="M348.992 260.404C348.857 257.563 348.857 254.722 348.857 251.933C350.177 251.374 350.89 251.781 351.473 252.817C352.252 254.203 353.147 255.523 354.294 256.789C354.294 255.531 354.351 254.271 354.277 253.018C354.209 251.88 354.605 251.439 356.093 251.869C355.975 254.555 355.853 257.351 355.666 260.276C355.241 260.404 354.881 260.404 354.359 260.291C353.097 258.412 351.998 256.647 350.812 254.741C350.589 256.824 350.397 258.614 350.206 260.404C349.846 260.404 349.487 260.404 348.992 260.404Z" fill="#0DB5EC"/>
<path d="M337.216 260.405C337.059 257.553 337.059 254.701 337.059 251.672C338.896 251.672 340.678 251.638 342.456 251.704C342.76 251.715 343.047 252.154 343.342 252.395C343.021 252.668 342.717 253.147 342.375 253.176C341.215 253.274 340.041 253.214 338.768 253.214C338.714 253.838 338.673 254.315 338.61 255.042C339.606 255.042 340.485 255.068 341.361 255.035C342.344 254.998 343.105 255.107 342.559 256.539C341.381 256.539 340.162 256.539 338.791 256.539C338.791 257.304 338.791 257.929 338.791 258.692C340.235 258.692 341.678 258.692 343.392 258.692C343.317 259.285 343.262 259.721 343.167 260.281C341.209 260.405 339.292 260.405 337.216 260.405Z" fill="#19B9ED"/>
<path d="M285.947 260.405C285.813 257.564 285.812 254.723 285.812 251.704C287.454 251.704 288.907 251.572 290.326 251.734C292.685 252.003 293.286 254.005 292.001 255.901C292.232 257.506 292.418 258.806 292.58 260.256C292.087 260.405 291.619 260.405 291.047 260.263C290.689 256.952 290.447 256.736 287.762 257.213C287.559 258.292 287.36 259.348 287.161 260.405C286.801 260.405 286.442 260.405 285.947 260.405ZM287.868 253.215C287.741 253.969 287.614 254.723 287.472 255.565C288.205 255.599 288.71 255.771 289.06 255.608C289.724 255.299 290.719 254.884 290.827 254.359C291.061 253.224 289.964 253.189 289.133 253.119C288.804 253.091 288.469 253.129 287.868 253.215Z" fill="#0EB5EC"/>
<path d="M249.537 260.405C250.379 257.674 251.333 254.935 252.367 252.227C252.472 251.951 253.089 251.676 253.416 251.728C253.813 251.792 254.348 252.126 254.49 252.478C255.512 255.02 256.449 257.596 257.454 260.283C256.916 260.405 256.338 260.405 255.672 260.275C255.427 258.74 254.698 258.373 253.255 258.254C251.409 258.101 251.466 259.574 250.751 260.405C250.391 260.405 250.032 260.405 249.537 260.405ZM253.823 254.857C253.664 254.588 253.505 254.318 253.242 253.872C252.895 254.936 252.613 255.802 252.289 256.799C253.115 256.799 253.721 256.799 254.466 256.799C254.243 256.126 254.073 255.611 253.823 254.857Z" fill="#0FB5EC"/>
<path d="M275.176 260.405C273.42 259.532 272.842 258.183 272.973 256.38C273.082 254.884 272.995 253.373 272.995 251.78C273.606 251.78 274.071 251.78 274.695 251.78C274.695 253.525 274.726 255.197 274.685 256.867C274.652 258.177 275.218 258.933 276.535 258.929C277.873 258.925 278.376 258.115 278.344 256.83C278.303 255.207 278.334 253.583 278.334 251.812C278.874 251.766 279.338 251.725 279.998 251.668C279.998 253.857 280.17 255.935 279.914 257.96C279.812 258.764 278.763 259.448 278.102 260.296C277.149 260.405 276.238 260.405 275.176 260.405Z" fill="#0BB4EC"/>
<path d="M297.754 260.404C298.594 257.784 299.543 255.152 300.59 252.559C300.746 252.171 301.341 251.784 301.771 251.738C302.113 251.701 302.716 252.101 302.853 252.447C303.862 254.991 304.782 257.57 305.718 260.271C305.236 260.404 304.768 260.404 304.144 260.275C303.764 258.693 302.955 258.325 301.481 258.264C299.719 258.192 299.803 259.481 299.299 260.404C298.831 260.404 298.363 260.404 297.754 260.404ZM301.286 254.917C301.073 255.518 300.86 256.12 300.578 256.917C301.446 256.87 302.055 256.837 302.809 256.795C302.436 255.688 302.149 254.835 301.798 253.793C301.585 254.212 301.463 254.45 301.286 254.917Z" fill="#10B6EC"/>
<path d="M391.336 210.705C391.126 211.153 390.891 211.446 390.71 211.77C389.634 213.697 387.616 214.587 385.608 214.005C383.575 213.415 382.272 211.645 382.381 209.624C382.495 207.53 384.096 205.789 386.165 205.51C388.23 205.23 390.158 206.402 390.948 208.426C391.028 208.632 391.056 208.858 391.222 209.117C391.336 209.628 391.336 210.096 391.336 210.705ZM385.094 212.389C386.526 213.187 387.843 213.129 389.203 211.743C390.147 210 390.061 208.571 388.845 207.575C387.601 206.557 386.272 206.375 384.72 207.558C383.208 209.424 383.265 210.637 385.094 212.389Z" fill="#0D58A3"/>
<path d="M364.173 260.404C364.029 258.114 364.029 255.824 364.029 253.599C363.456 252.545 361.095 254.301 361.431 251.661C363.595 251.661 365.714 251.632 367.83 251.696C368.111 251.705 368.376 252.193 368.649 252.458C368.365 252.716 368.12 253.107 367.79 253.199C367.275 253.343 366.704 253.283 365.941 253.32C365.941 255.644 365.941 257.874 365.996 260.254C365.474 260.404 364.896 260.404 364.173 260.404Z" fill="#29BEEE"/>
<path d="M263.37 260.404C263.226 258.114 263.226 255.824 263.226 253.599C262.653 252.545 260.292 254.301 260.628 251.661C262.793 251.661 264.912 251.632 267.027 251.696C267.308 251.705 267.574 252.193 267.846 252.458C267.563 252.716 267.317 253.107 266.987 253.199C266.473 253.343 265.901 253.283 265.139 253.32C265.139 255.644 265.139 257.874 265.194 260.254C264.671 260.404 264.093 260.404 263.37 260.404Z" fill="#29BEEE"/>
<path d="M311.255 260.404C311.098 257.564 311.098 254.723 311.098 251.854C312.292 251.38 312.721 251.782 312.68 253.022C312.62 254.855 312.665 256.691 312.665 258.656C314.052 258.656 315.316 258.656 316.9 258.656C316.769 259.293 316.676 259.748 316.537 260.304C314.799 260.404 313.106 260.404 311.255 260.404Z" fill="#13B7ED"/>
<path d="M170.801 216.004C170.801 225.028 170.801 233.899 170.801 242.915C168.193 242.915 165.658 242.915 163.014 242.915C163.014 229.102 163.014 215.311 163.014 201.234C165.646 201.234 168.314 201.177 170.975 201.291C171.398 201.309 171.875 202.037 172.182 202.528C177.716 211.367 183.228 220.219 188.746 229.068C188.978 229.44 189.225 229.803 189.684 230.507C189.684 220.597 189.684 211.053 189.684 201.364C192.386 201.364 194.921 201.364 197.566 201.364C197.566 215.178 197.566 228.97 197.566 243.042C194.932 243.042 192.264 243.098 189.603 242.983C189.183 242.965 188.715 242.22 188.405 241.726C183.01 233.131 177.637 224.523 172.257 215.918C171.878 215.311 171.488 214.711 170.892 213.776C170.851 214.701 170.826 215.275 170.801 216.004Z" fill="#0754A1"/>
<path d="M203.389 238.584C201.405 232.91 203.298 228.429 208.797 226.409C211.823 225.297 215.071 224.795 218.215 224C219.135 223.768 220.06 223.53 220.947 223.2C222.054 222.789 222.858 221.924 222.519 220.76C222.255 219.855 221.608 218.685 220.834 218.374C218.429 217.408 215.879 217.495 213.457 218.487C211.444 219.31 211.429 221.253 211.182 223.145C208.9 223.145 206.624 223.145 204.152 223.145C203.93 220.403 204.756 217.969 206.646 215.897C209.437 212.837 213.174 212.131 217.044 211.943C218.597 211.868 220.198 212.014 221.726 212.318C226.717 213.313 229.491 216.683 229.557 221.79C229.615 226.28 229.57 230.772 229.57 235.263C229.57 235.809 229.57 236.355 229.57 236.993C230.444 237.054 231.152 237.103 231.956 237.159C231.956 239.198 231.956 241.186 231.956 243.163C227.367 244.134 224.764 243.265 222.894 240.15C218.853 243.852 214.145 244.66 208.983 243.254C206.486 242.575 204.597 241.065 203.389 238.584ZM219.303 236.966C222.267 235.081 223.151 232.661 222.397 228.47C219.627 229.132 216.842 229.733 214.098 230.486C213.098 230.761 212.108 231.277 211.272 231.897C210.013 232.83 209.793 234.193 210.179 235.684C210.539 237.073 211.517 237.9 212.834 237.846C214.922 237.761 216.998 237.362 219.303 236.966Z" fill="#0452A0"/>
<path d="M360.106 225.462C363.029 224.816 365.84 224.284 368.609 223.587C370.724 223.055 371.543 222.032 371.379 220.556C371.219 219.105 370.092 218.158 368.137 217.924C367.249 217.818 366.341 217.756 365.452 217.813C361.342 218.072 360.402 218.979 359.881 223.269C358.764 223.269 357.611 223.269 356.459 223.269C355.289 223.269 354.119 223.269 352.963 223.269C352.554 219.167 354.601 215.388 358.402 213.633C363.025 211.498 367.873 211.205 372.648 212.989C376.979 214.607 378.328 218.278 378.366 222.571C378.403 226.727 378.374 230.884 378.374 235.04C378.374 235.65 378.374 236.26 378.374 236.978C379.104 237.039 379.704 237.089 380.429 237.149C380.429 239.165 380.429 241.198 380.429 243.391C377.161 243.171 373.481 244.38 371.682 240.1C367.944 243.626 363.536 244.48 358.7 243.535C354.593 242.733 351.931 239.896 351.46 235.962C350.957 231.771 352.757 228.528 356.665 226.721C357.729 226.23 358.87 225.906 360.106 225.462ZM371.113 233.137C371.238 231.589 371.363 230.041 371.498 228.375C368.394 229.12 365.507 229.755 362.659 230.529C361.711 230.786 360.756 231.27 359.987 231.881C358.017 233.447 358.488 236.98 360.759 237.709C363.832 238.696 369.687 237.834 371.113 233.137Z" fill="#0552A0"/>
<path d="M324.62 240.826C321.85 238.587 320.678 235.746 320.7 232.215C323.013 232.215 325.284 232.215 327.623 232.215C327.633 232.226 327.758 232.296 327.777 232.389C328.816 237.428 334.695 239.957 339.108 237.126C339.909 236.612 340.663 235.322 340.634 234.416C340.606 233.52 339.743 232.194 338.924 231.869C336.811 231.031 334.496 230.721 332.306 230.053C330.069 229.371 327.722 228.805 325.71 227.677C320.439 224.723 320.342 217.515 325.373 214.152C330.042 211.031 338.807 211.331 343.233 214.764C345.702 216.68 346.876 219.227 346.954 222.46C344.657 222.46 342.393 222.46 340.107 222.46C338.235 218.259 335.572 216.92 331.469 218.106C330.091 218.505 329.099 219.27 329.077 220.761C329.057 222.161 330.089 222.831 331.305 223.141C333.857 223.79 336.448 224.295 338.976 225.019C340.633 225.494 342.305 226.08 343.805 226.913C349.273 229.945 349.636 237.848 344.48 241.414C340.861 243.917 336.718 244.142 332.514 243.736C329.689 243.462 327.016 242.668 324.62 240.826Z" fill="#0452A0"/>
<path d="M255.193 238.707C254.803 236.902 254.201 235.219 254.169 233.525C254.052 227.239 254.123 220.948 254.123 214.659C254.123 214.112 254.123 213.565 254.123 212.944C256.537 212.944 258.81 212.944 261.259 212.944C261.259 215.897 261.259 218.797 261.259 221.698C261.259 224.955 261.258 228.211 261.259 231.468C261.26 235.702 262.836 237.692 266.282 237.815C270.706 237.973 273.812 235.563 273.948 231.583C274.101 227.096 274.004 222.6 274.013 218.109C274.017 216.431 274.014 214.754 274.014 212.973C276.364 212.973 278.633 212.973 280.998 212.973C280.998 222.936 280.998 232.902 280.998 242.961C278.707 242.961 276.427 242.961 274.09 242.961C274.042 242.226 273.996 241.525 273.939 240.636C270.39 243.552 266.458 244.361 262.164 243.63C259.11 243.11 256.746 241.584 255.193 238.707Z" fill="#02509F"/>
<path d="M249.763 237.194C249.917 239.083 249.917 240.971 249.917 242.983C247.249 243.516 244.519 243.746 241.845 242.848C238.544 241.738 237.385 239.031 237.296 235.868C237.156 230.871 237.226 225.869 237.208 220.869C237.205 220.259 237.207 219.649 237.207 218.821C235.722 218.821 234.355 218.821 232.938 218.821C232.938 216.76 232.938 214.92 232.938 212.891C234.319 212.891 235.688 212.891 237.179 212.891C237.179 209.746 237.179 206.787 237.179 203.705C239.571 203.705 241.835 203.705 244.221 203.705C244.221 206.697 244.221 209.654 244.221 212.782C246.155 212.782 247.978 212.782 249.913 212.782C249.913 214.825 249.913 216.701 249.913 218.763C247.291 218.763 244.68 218.763 242.086 218.763C242.064 219.053 242.007 219.214 242.054 219.255C244.352 221.233 244.446 223.848 244.321 226.601C244.203 229.181 244.27 231.77 244.304 234.354C244.34 237.117 244.879 237.612 247.61 237.464C248.279 237.428 248.943 237.286 249.763 237.194Z" fill="#0552A0"/>
<path d="M287.498 235.456C287.498 227.879 287.498 220.471 287.498 212.965C289.864 212.965 292.134 212.965 294.551 212.965C294.551 213.951 294.551 214.927 294.551 216.408C297.422 212.215 301.148 211.704 305.341 212.44C305.341 214.672 305.341 216.786 305.341 219.024C303.82 219.024 302.34 218.811 300.945 219.065C297.198 219.747 294.634 223.046 294.591 227.099C294.542 231.819 294.58 236.539 294.579 241.259C294.579 241.806 294.579 242.352 294.579 242.976C292.195 242.976 289.966 242.976 287.498 242.976C287.498 240.511 287.498 238.068 287.498 235.456Z" fill="#02509F"/>
<path d="M309.422 242.714C309.367 232.906 309.363 223.245 309.361 213.584C309.361 213.419 309.394 213.254 309.424 212.978C311.691 212.978 313.962 212.978 316.338 212.978C316.338 222.938 316.338 232.9 316.338 242.862C314.019 242.862 311.747 242.862 309.422 242.714Z" fill="#0452A0"/>
<path d="M316.699 201.857C316.803 204.281 316.803 206.579 316.803 208.994C314.207 208.994 311.657 208.994 308.996 208.994C308.996 206.611 308.996 204.227 308.996 201.73C311.568 201.73 314.082 201.73 316.699 201.857Z" fill="#0854A1"/>
<path d="M388.493 211.716C387.877 211.489 387.209 211.157 386.481 210.796C386.276 211.031 385.906 211.456 385.409 211.853C385.278 210.598 385.275 209.372 385.275 207.992C385.776 207.815 386.274 207.753 386.769 207.775C388.183 207.837 388.614 208.499 388.326 209.834C388.205 210.392 388.393 211.016 388.493 211.716Z" fill="#0D58A3"/>
</g>
<defs>
<clipPath id="clip0_439_1935">
<rect width="325" height="65.0674" fill="white" transform="translate(66 195)"/>
</clipPath>
</defs>
</svg>
