<svg width="456" height="456" viewBox="0 0 456 456" fill="none" xmlns="http://www.w3.org/2000/svg">
<g clip-path="url(#clip0_439_1938)">
<path d="M37.7919 188.415C37.9579 189.305 37.9579 190.196 37.9579 191.291C34.0269 192.231 31.3054 194.379 31.6543 198.97C31.9249 202.53 33.8373 204.907 37.2367 206.628C37.2553 201.891 39.3953 198.797 43.6213 196.866C44.0433 197.706 44.4302 198.475 44.9027 199.415C44.3606 199.788 43.7712 200.036 43.4069 200.473C42.4125 201.665 41.1667 202.808 40.6489 204.203C39.601 207.026 40.4719 208.063 43.4209 208.411C47.1619 208.853 50.8036 208.498 54.8107 207.326C52.9295 206.473 51.4026 205.78 49.4548 204.896C50.4978 204.055 51.1587 203.398 51.9301 202.918C57.7365 199.312 64.2047 197.658 70.8766 196.731C83.6003 194.962 96.3985 196.048 109.164 195.898C110.939 195.877 112.757 196.145 114.491 196.55C125.9 199.217 134.155 209.593 134.161 221.166C134.168 233.244 126.271 243.255 114.38 246.022C111.847 246.612 109.196 246.921 106.595 246.946C96.2255 247.049 85.8548 246.989 75.4847 246.989C74.7535 246.989 74.0224 246.989 73.2912 246.989C73.1773 246.79 73.0634 246.592 72.9494 246.394C74.7148 244.651 76.4802 242.908 78.2864 241.125C76.7084 240.674 75.0104 240.188 73.0261 239.621C73.4696 239.146 73.7557 238.71 74.1525 238.434C78.0006 235.753 82.1607 235.216 86.5347 236.869C88.1386 237.476 89.6746 238.296 91.1735 239.14C96.3124 242.032 101.767 242.132 107.226 240.63C112.41 239.203 115.918 234.133 115.953 228.766C115.985 223.814 112.492 218.891 107.647 217.151C107.553 217.764 107.462 218.359 107.308 219.367C103.877 219.367 100.45 219.33 97.0256 219.4C96.4091 219.413 95.4967 219.692 95.2362 220.145C91.8039 226.108 86.2874 228.73 79.85 229.869C75.1351 230.703 70.7847 232.263 67.1322 235.875C66.3394 235.23 65.567 234.603 64.6802 233.883C68.4511 229.867 73.1365 228.128 78.1928 226.926C81.2475 226.201 84.3365 225.264 87.1135 223.843C89.1608 222.795 90.7282 220.81 92.8449 218.947C90.9651 218.291 89.7512 217.824 88.5066 217.463C88.1992 217.373 87.6405 217.504 87.4541 217.739C84.4028 221.572 80.0656 223.016 75.5535 223.841C70.0942 224.838 65.2924 226.971 61.1649 230.983C60.3237 230.3 59.5492 229.672 58.6606 228.95C62.8018 224.95 67.4508 222.367 72.9442 221.151C75.9495 220.485 78.8879 219.437 81.7695 218.333C82.9282 217.89 83.8538 216.837 84.8855 216.062C84.8671 215.805 84.8486 215.548 84.8301 215.291C83.9072 215.157 82.9195 214.741 82.0725 214.937C77.9563 215.885 73.9469 215.42 70.0498 214.077C69.358 213.839 69.0498 212.487 68.4062 211.376C68.1687 211.52 67.5667 211.868 66.9823 212.243C61.0551 216.049 54.716 218.24 47.5648 217.079C43.9061 216.486 41.0281 214.634 38.9521 211.519C38.5641 210.937 37.9402 210.37 37.299 210.121C32.9609 208.433 30.0136 205.484 28.5517 200.922C28.4143 199.468 28.4143 198.074 28.541 196.411C29.5307 194.536 30.1004 192.635 31.3364 191.404C32.6642 190.08 34.6177 189.385 36.2981 188.415C36.7407 188.415 37.1833 188.415 37.7919 188.415ZM57.0085 209.839C52.5503 210.636 48.0921 211.433 43.842 212.193C47.128 216.1 58.2475 214.352 62.5047 210.962C60.6178 210.629 59.4131 208.608 57.0085 209.839ZM61.937 202.202C62.1299 202.921 62.1613 203.764 62.5795 204.311C62.8115 204.615 64.0078 204.671 64.2116 204.407C64.6681 203.816 65.1859 202.769 64.9453 202.242C64.3162 200.865 63.1689 200.977 61.937 202.202Z" fill="#03B2EB"/>
<path d="M343.519 268.498C343.354 265.003 343.354 261.509 343.354 258.078C345.276 257.325 346.23 257.852 346.743 259.628C347.234 261.326 347.981 262.951 348.819 265.142C349.657 262.966 350.425 261.286 350.942 259.532C351.41 257.944 352.291 257.43 353.858 257.88C353.858 261.286 353.858 264.728 353.793 268.334C353.284 268.498 352.842 268.498 352.258 268.306C352.116 266.312 352.116 264.51 352.116 262.365C351.013 264.657 350.088 266.577 349.163 268.498C348.851 268.498 348.54 268.498 348.068 268.341C347.227 266.309 346.547 264.434 345.748 262.232C345.466 264.634 345.24 266.566 345.013 268.498C344.571 268.498 344.128 268.498 343.519 268.498Z" fill="#0DB5EC"/>
<path d="M238.539 268.498C238.373 264.991 238.373 261.484 238.373 258.067C240.022 257.376 240.921 257.872 241.643 259.152C242.607 260.859 243.703 262.492 245.16 264.031C245.16 262.005 245.16 259.98 245.16 257.862C245.908 257.862 246.436 257.862 247.324 257.862C247.324 261.308 247.324 264.725 247.413 268.32C247.502 268.498 247.294 268.498 247.085 268.39C245.452 268.444 244.616 267.737 243.946 266.531C243.009 264.848 241.918 263.251 240.753 261.395C240.483 264.058 240.258 266.278 240.033 268.498C239.59 268.498 239.148 268.498 238.539 268.498Z" fill="#10B6EC"/>
<path d="M407.032 268.498C406.838 265.008 406.838 261.518 406.838 257.741C409.455 257.741 411.767 257.7 414.074 257.787C414.397 257.799 414.697 258.437 415.007 258.785C414.638 259.079 414.286 259.599 413.899 259.627C412.466 259.728 411.022 259.667 409.353 259.667C409.315 260.408 409.283 261.033 409.242 261.833C410.926 261.833 412.419 261.833 413.923 261.833C414.718 263.507 414.019 263.896 412.593 263.828C411.574 263.779 410.55 263.818 409.335 263.818C409.289 264.701 409.253 265.423 409.2 266.448C410.75 266.448 412.176 266.526 413.59 266.426C414.97 266.329 415.3 266.95 415.1 268.322C412.5 268.498 409.863 268.498 407.032 268.498Z" fill="#27BDEE"/>
<path d="M376.299 268.497C376.133 265.001 376.133 261.504 376.133 258.072C377.757 257.383 378.635 257.884 379.352 259.16C380.31 260.865 381.412 262.489 382.823 264.047C382.823 262.5 382.894 260.948 382.803 259.406C382.72 258.006 383.207 257.464 385.038 257.992C384.893 261.298 384.743 264.739 384.512 268.339C383.989 268.497 383.546 268.497 382.904 268.357C381.351 266.045 379.998 263.872 378.538 261.527C378.264 264.091 378.028 266.294 377.793 268.497C377.35 268.497 376.907 268.497 376.299 268.497Z" fill="#0DB5EC"/>
<path d="M361.804 268.498C361.609 264.988 361.609 261.478 361.609 257.75C363.87 257.75 366.064 257.708 368.253 257.79C368.626 257.804 368.98 258.343 369.343 258.64C368.947 258.976 368.574 259.566 368.153 259.601C366.725 259.722 365.28 259.647 363.713 259.647C363.647 260.416 363.596 261.003 363.519 261.898C364.744 261.898 365.826 261.93 366.905 261.889C368.114 261.844 369.051 261.978 368.379 263.74C366.93 263.74 365.429 263.74 363.741 263.74C363.741 264.681 363.741 265.451 363.741 266.39C365.519 266.39 367.295 266.39 369.404 266.39C369.312 267.121 369.244 267.657 369.128 268.346C366.718 268.498 364.358 268.498 361.804 268.498Z" fill="#19B9ED"/>
<path d="M298.705 268.498C298.539 265.001 298.539 261.505 298.539 257.789C300.56 257.789 302.347 257.626 304.094 257.826C306.997 258.157 307.737 260.62 306.156 262.955C306.44 264.929 306.669 266.53 306.868 268.314C306.262 268.498 305.685 268.498 304.982 268.323C304.541 264.248 304.243 263.982 300.939 264.569C300.689 265.897 300.444 267.197 300.199 268.498C299.756 268.498 299.314 268.498 298.705 268.498ZM301.068 259.649C300.912 260.577 300.756 261.505 300.581 262.541C301.484 262.583 302.106 262.795 302.535 262.594C303.354 262.213 304.577 261.703 304.711 261.056C304.998 259.66 303.648 259.617 302.625 259.53C302.221 259.496 301.809 259.543 301.068 259.649Z" fill="#0EB5EC"/>
<path d="M253.893 268.498C254.929 265.138 256.103 261.766 257.376 258.433C257.505 258.093 258.264 257.755 258.666 257.82C259.156 257.898 259.814 258.309 259.988 258.742C261.246 261.871 262.4 265.042 263.636 268.349C262.974 268.498 262.262 268.498 261.444 268.339C261.142 266.449 260.245 265.998 258.468 265.851C256.196 265.663 256.267 267.476 255.386 268.498C254.944 268.498 254.501 268.498 253.893 268.498ZM259.168 261.671C258.972 261.339 258.776 261.007 258.452 260.457C258.025 261.768 257.678 262.833 257.279 264.06C258.296 264.06 259.043 264.06 259.959 264.06C259.685 263.232 259.475 262.598 259.168 261.671Z" fill="#0FB5EC"/>
<path d="M285.449 268.498C283.287 267.424 282.575 265.764 282.737 263.545C282.871 261.703 282.764 259.844 282.764 257.883C283.516 257.883 284.088 257.883 284.856 257.883C284.856 260.031 284.894 262.089 284.844 264.145C284.804 265.756 285.5 266.687 287.12 266.681C288.768 266.676 289.387 265.68 289.347 264.098C289.297 262.101 289.335 260.102 289.335 257.923C290 257.865 290.571 257.816 291.384 257.745C291.384 260.439 291.595 262.997 291.279 265.489C291.154 266.479 289.863 267.321 289.05 268.364C287.876 268.498 286.756 268.498 285.449 268.498Z" fill="#0BB4EC"/>
<path d="M313.234 268.498C314.268 265.274 315.436 262.034 316.725 258.843C316.917 258.365 317.65 257.889 318.178 257.832C318.599 257.786 319.341 258.28 319.51 258.705C320.752 261.836 321.885 265.01 323.036 268.335C322.444 268.498 321.867 268.498 321.099 268.34C320.631 266.393 319.636 265.939 317.821 265.864C315.653 265.775 315.756 267.363 315.136 268.498C314.56 268.498 313.984 268.498 313.234 268.498ZM317.582 261.745C317.32 262.485 317.058 263.225 316.71 264.207C317.779 264.149 318.528 264.108 319.456 264.057C318.997 262.693 318.643 261.644 318.212 260.362C317.949 260.877 317.8 261.17 317.582 261.745Z" fill="#10B6EC"/>
<path d="M428.414 207.329C428.156 207.881 427.866 208.242 427.644 208.64C426.319 211.012 423.835 212.107 421.364 211.39C418.862 210.665 417.258 208.486 417.393 205.999C417.533 203.422 419.503 201.279 422.049 200.935C424.591 200.591 426.963 202.033 427.936 204.524C428.034 204.777 428.069 205.056 428.274 205.375C428.414 206.004 428.414 206.58 428.414 207.329ZM420.731 209.402C422.493 210.384 424.114 210.313 425.788 208.607C426.95 206.462 426.845 204.703 425.348 203.477C423.817 202.224 422.182 202 420.271 203.456C418.41 205.752 418.48 207.245 420.731 209.402Z" fill="#0D58A3"/>
<path d="M394.983 268.498C394.806 265.679 394.806 262.861 394.806 260.122C394.101 258.825 391.195 260.987 391.609 257.737C394.272 257.737 396.88 257.701 399.484 257.78C399.829 257.791 400.157 258.391 400.492 258.718C400.143 259.035 399.841 259.517 399.435 259.63C398.802 259.807 398.098 259.734 397.16 259.779C397.16 262.639 397.16 265.384 397.227 268.313C396.584 268.498 395.873 268.498 394.983 268.498Z" fill="#29BEEE"/>
<path d="M270.917 268.498C270.739 265.679 270.739 262.861 270.739 260.122C270.034 258.825 267.128 260.987 267.542 257.737C270.206 257.737 272.814 257.701 275.418 257.78C275.763 257.791 276.09 258.391 276.426 258.718C276.077 259.035 275.774 259.517 275.369 259.63C274.735 259.807 274.032 259.734 273.093 259.779C273.093 262.639 273.093 265.384 273.161 268.313C272.517 268.498 271.806 268.498 270.917 268.498Z" fill="#29BEEE"/>
<path d="M329.854 268.498C329.66 265.002 329.66 261.506 329.66 257.975C331.13 257.392 331.658 257.886 331.608 259.412C331.534 261.668 331.589 263.928 331.589 266.346C333.296 266.346 334.852 266.346 336.802 266.346C336.641 267.13 336.526 267.69 336.355 268.374C334.215 268.498 332.131 268.498 329.854 268.498Z" fill="#13B7ED"/>
<path d="M156.987 213.851C156.987 224.958 156.987 235.875 156.987 246.973C153.777 246.973 150.657 246.973 147.402 246.973C147.402 229.972 147.402 212.998 147.402 195.672C150.642 195.672 153.926 195.603 157.201 195.743C157.722 195.765 158.308 196.662 158.686 197.265C165.498 208.144 172.281 219.04 179.073 229.931C179.359 230.389 179.662 230.835 180.228 231.701C180.228 219.505 180.228 207.758 180.228 195.832C183.552 195.832 186.673 195.832 189.928 195.832C189.928 212.835 189.928 229.809 189.928 247.128C186.687 247.128 183.403 247.198 180.128 247.056C179.61 247.034 179.035 246.117 178.653 245.509C172.013 234.93 165.4 224.336 158.779 213.745C158.312 212.999 157.832 212.26 157.098 211.109C157.049 212.248 157.018 212.954 156.987 213.851Z" fill="#0754A1"/>
<path d="M197.095 241.642C194.653 234.658 196.983 229.144 203.751 226.657C207.475 225.289 211.473 224.67 215.343 223.692C216.475 223.406 217.613 223.113 218.705 222.708C220.067 222.202 221.057 221.138 220.64 219.704C220.315 218.59 219.518 217.151 218.565 216.768C215.606 215.579 212.467 215.686 209.486 216.906C207.009 217.92 206.99 220.311 206.686 222.639C203.877 222.639 201.076 222.639 198.034 222.639C197.76 219.266 198.778 216.269 201.103 213.719C204.538 209.953 209.138 209.084 213.901 208.853C215.813 208.761 217.784 208.94 219.664 209.314C225.806 210.539 229.221 214.687 229.302 220.971C229.373 226.498 229.317 232.026 229.318 237.554C229.318 238.226 229.318 238.899 229.318 239.684C230.394 239.759 231.265 239.819 232.254 239.888C232.254 242.397 232.254 244.844 232.254 247.277C226.606 248.472 223.403 247.403 221.102 243.569C216.128 248.125 210.334 249.12 203.98 247.39C200.907 246.553 198.582 244.695 197.095 241.642ZM216.682 239.65C220.329 237.33 221.418 234.352 220.489 229.194C217.08 230.008 213.652 230.748 210.275 231.675C209.044 232.013 207.826 232.648 206.797 233.412C205.248 234.56 204.977 236.238 205.452 238.073C205.895 239.782 207.098 240.799 208.719 240.733C211.29 240.628 213.845 240.138 216.682 239.65Z" fill="#0452A0"/>
<path d="M389.978 225.492C393.576 224.697 397.035 224.042 400.443 223.185C403.046 222.53 404.054 221.27 403.853 219.454C403.655 217.669 402.268 216.502 399.862 216.215C398.769 216.084 397.652 216.008 396.557 216.077C391.499 216.396 390.342 217.513 389.701 222.793C388.326 222.793 386.908 222.793 385.489 222.793C384.049 222.793 382.609 222.793 381.187 222.793C380.683 217.744 383.202 213.093 387.881 210.933C393.571 208.306 399.537 207.944 405.415 210.14C410.745 212.132 412.404 216.65 412.451 221.934C412.497 227.049 412.461 232.165 412.461 237.28C412.462 238.031 412.461 238.781 412.461 239.666C413.36 239.741 414.098 239.802 414.99 239.876C414.99 242.358 414.99 244.859 414.99 247.558C410.969 247.288 406.439 248.776 404.226 243.507C399.625 247.847 394.199 248.898 388.247 247.736C383.192 246.749 379.917 243.257 379.336 238.416C378.717 233.257 380.933 229.265 385.742 227.042C387.052 226.437 388.457 226.039 389.978 225.492ZM403.525 234.938C403.679 233.033 403.833 231.127 403.998 229.078C400.178 229.994 396.626 230.775 393.12 231.728C391.954 232.045 390.778 232.64 389.832 233.392C387.407 235.319 387.987 239.668 390.781 240.565C394.563 241.78 401.77 240.719 403.525 234.938Z" fill="#0552A0"/>
<path d="M346.302 244.402C342.893 241.646 341.45 238.15 341.477 233.804C344.324 233.804 347.119 233.804 349.999 233.804C350.011 233.817 350.164 233.904 350.188 234.017C351.467 240.219 358.703 243.333 364.133 239.848C365.119 239.216 366.047 237.628 366.012 236.512C365.977 235.41 364.915 233.777 363.908 233.378C361.307 232.347 358.457 231.964 355.762 231.142C353.009 230.303 350.121 229.607 347.644 228.219C341.156 224.582 341.036 215.711 347.229 211.572C352.976 207.731 363.763 208.1 369.21 212.326C372.249 214.684 373.694 217.819 373.791 221.798C370.962 221.798 368.177 221.798 365.364 221.798C363.059 216.627 359.781 214.98 354.732 216.439C353.035 216.93 351.814 217.872 351.788 219.706C351.764 221.429 353.033 222.255 354.53 222.636C357.671 223.435 360.859 224.055 363.971 224.947C366.011 225.532 368.068 226.253 369.915 227.277C376.645 231.01 377.091 240.736 370.745 245.125C366.291 248.206 361.192 248.483 356.018 247.983C352.541 247.647 349.251 246.669 346.302 244.402Z" fill="#0452A0"/>
<path d="M260.853 241.792C260.373 239.571 259.632 237.5 259.593 235.416C259.449 227.678 259.536 219.936 259.536 212.196C259.536 211.523 259.536 210.849 259.536 210.085C262.507 210.085 265.304 210.085 268.319 210.085C268.319 213.719 268.319 217.289 268.319 220.858C268.319 224.867 268.318 228.875 268.319 232.883C268.321 238.094 270.26 240.543 274.502 240.695C279.946 240.89 283.769 237.923 283.936 233.025C284.124 227.502 284.005 221.969 284.016 216.441C284.021 214.377 284.017 212.312 284.017 210.12C286.91 210.12 289.702 210.12 292.613 210.12C292.613 222.382 292.613 234.648 292.613 247.029C289.794 247.029 286.987 247.029 284.111 247.029C284.052 246.124 283.996 245.262 283.925 244.167C279.557 247.756 274.718 248.751 269.433 247.852C265.674 247.212 262.764 245.333 260.853 241.792Z" fill="#02509F"/>
<path d="M254.17 239.931C254.358 242.256 254.358 244.58 254.358 247.056C251.075 247.712 247.715 247.995 244.424 246.889C240.362 245.524 238.934 242.192 238.825 238.298C238.653 232.149 238.739 225.992 238.716 219.838C238.714 219.087 238.716 218.337 238.716 217.318C236.888 217.318 235.205 217.318 233.461 217.318C233.461 214.781 233.461 212.517 233.461 210.019C235.161 210.019 236.847 210.019 238.682 210.019C238.682 206.148 238.682 202.507 238.682 198.714C241.625 198.714 244.411 198.714 247.349 198.714C247.349 202.396 247.349 206.036 247.349 209.885C249.729 209.885 251.972 209.885 254.353 209.885C254.353 212.4 254.353 214.708 254.353 217.247C251.127 217.247 247.914 217.247 244.721 217.247C244.693 217.604 244.623 217.802 244.681 217.852C247.51 220.286 247.625 223.505 247.471 226.894C247.326 230.068 247.409 233.255 247.45 236.436C247.495 239.836 248.158 240.445 251.519 240.263C252.343 240.218 253.161 240.045 254.17 239.931Z" fill="#0552A0"/>
<path d="M300.613 237.792C300.613 228.467 300.613 219.35 300.613 210.111C303.525 210.111 306.319 210.111 309.293 210.111C309.293 211.324 309.293 212.526 309.293 214.349C312.828 209.188 317.413 208.559 322.574 209.465C322.574 212.212 322.574 214.813 322.574 217.568C320.702 217.568 318.88 217.307 317.163 217.619C312.552 218.458 309.396 222.518 309.344 227.507C309.283 233.316 309.329 239.125 309.329 244.934C309.329 245.607 309.329 246.28 309.329 247.047C306.395 247.047 303.651 247.047 300.613 247.047C300.613 244.014 300.613 241.007 300.613 237.792Z" fill="#02509F"/>
<path d="M327.597 246.726C327.528 234.654 327.523 222.764 327.521 210.873C327.521 210.67 327.562 210.467 327.599 210.127C330.388 210.127 333.184 210.127 336.109 210.127C336.109 222.386 336.109 234.647 336.109 246.908C333.254 246.908 330.457 246.908 327.597 246.726Z" fill="#0452A0"/>
<path d="M336.553 196.438C336.681 199.422 336.681 202.25 336.681 205.223C333.486 205.223 330.348 205.223 327.072 205.223C327.072 202.29 327.072 199.355 327.072 196.283C330.238 196.283 333.331 196.283 336.553 196.438Z" fill="#0854A1"/>
<path d="M424.915 208.574C424.157 208.295 423.335 207.886 422.439 207.441C422.187 207.731 421.731 208.254 421.119 208.742C420.959 207.198 420.954 205.689 420.955 203.991C421.572 203.773 422.185 203.696 422.793 203.723C424.534 203.8 425.064 204.614 424.709 206.257C424.561 206.944 424.792 207.713 424.915 208.574Z" fill="#0D58A3"/>
</g>
<defs>
<clipPath id="clip0_439_1938">
<rect width="400" height="80.083" fill="white" transform="translate(28 188)"/>
</clipPath>
</defs>
</svg>
