<svg width="128" height="128" viewBox="0 0 128 128" fill="none" xmlns="http://www.w3.org/2000/svg">
<path d="M51.2 89.6C61.8667 89.6 70.9331 85.8669 78.4 78.4C85.8669 70.9331 89.6 61.8667 89.6 51.2C89.6 40.5333 85.8669 31.4667 78.4 24C70.9331 16.5333 61.8667 12.8 51.2 12.8C40.5333 12.8 31.4667 16.5333 24 24C16.5333 31.4667 12.8 40.5333 12.8 51.2C12.8 61.8667 16.5333 70.9331 24 78.4C31.4667 85.8669 40.5333 89.6 51.2 89.6ZM44.8 70.4V25.6H57.6V70.4H44.8ZM22.4 70.4V38.4H35.2V70.4H22.4ZM67.2 70.4V44.8H80V70.4H67.2ZM119.04 128L82.72 91.68C78.3469 95.0931 73.4931 97.7331 68.16 99.6C62.8267 101.467 57.1733 102.4 51.2 102.4C36.9067 102.4 24.8 97.44 14.88 87.52C4.96 77.6 0 65.4931 0 51.2C0 36.9067 4.96 24.8 14.88 14.88C24.8 4.96 36.9067 0 51.2 0C65.4931 0 77.6 4.96 87.52 14.88C97.44 24.8 102.4 36.9067 102.4 51.2C102.4 57.1733 101.467 62.8267 99.6 68.16C97.7331 73.4931 95.0931 78.3469 91.68 82.72L128 119.04L119.04 128Z" fill="#F4F4F4"/>
</svg>
