<svg width="128" height="71" viewBox="0 0 128 71" fill="none" xmlns="http://www.w3.org/2000/svg">
<path d="M0 70.4V57.6C4.05333 57.6 7.06667 56.5333 9.04 54.4C11.0133 52.2667 15.1467 51.2 21.44 51.2C27.7333 51.2 31.8667 52.2667 33.84 54.4C35.8133 56.5333 38.72 57.6 42.56 57.6C46.6133 57.6 49.6267 56.5333 51.6 54.4C53.5733 52.2667 57.7067 51.2 64 51.2C70.08 51.2 74.2133 52.2667 76.4 54.4C78.5867 56.5333 81.6 57.6 85.44 57.6C89.4933 57.6 92.4533 56.5333 94.32 54.4C96.1867 52.2667 100.267 51.2 106.56 51.2C112.853 51.2 116.987 52.2667 118.96 54.4C120.933 56.5333 123.947 57.6 128 57.6V70.4C121.92 70.4 117.787 69.3333 115.6 67.2C113.413 65.0667 110.4 64 106.56 64C102.72 64 99.8133 65.0667 97.84 67.2C95.8667 69.3333 91.7333 70.4 85.44 70.4C79.36 70.4 75.2267 69.3333 73.04 67.2C70.8533 65.0667 67.84 64 64 64C59.9467 64 56.9333 65.0667 54.96 67.2C52.9867 69.3333 48.8533 70.4 42.56 70.4C36.2667 70.4 32.1867 69.3333 30.32 67.2C28.4533 65.0667 25.4933 64 21.44 64C17.3867 64 14.3733 65.0667 12.4 67.2C10.4267 69.3333 6.29333 70.4 0 70.4ZM0 44.8V32C4.05333 32 7.06667 30.9333 9.04 28.8C11.0133 26.6667 15.1467 25.6 21.44 25.6C27.52 25.6 31.6 26.6667 33.68 28.8C35.76 30.9333 38.72 32 42.56 32C46.6133 32 49.6267 30.9333 51.6 28.8C53.5733 26.6667 57.7067 25.6 64 25.6C70.08 25.6 74.1867 26.6667 76.32 28.8C78.4533 30.9333 81.3867 32 85.12 32C89.1733 32 92.1867 30.9333 94.16 28.8C96.1333 26.6667 100.267 25.6 106.56 25.6C112.64 25.6 116.773 26.6667 118.96 28.8C121.147 30.9333 124.16 32 128 32V44.8C121.707 44.8 117.52 43.7333 115.44 41.6C113.36 39.4667 110.4 38.4 106.56 38.4C102.72 38.4 99.8133 39.4667 97.84 41.6C95.8667 43.7333 91.7333 44.8 85.44 44.8C79.36 44.8 75.2267 43.7333 73.04 41.6C70.8533 39.4667 67.84 38.4 64 38.4C59.9467 38.4 56.9867 39.4667 55.12 41.6C53.2533 43.7333 49.1733 44.8 42.88 44.8C36.5867 44.8 32.4 43.7333 30.32 41.6C28.24 39.4667 25.28 38.4 21.44 38.4C17.6 38.4 14.5867 39.4667 12.4 41.6C10.2133 43.7333 6.08 44.8 0 44.8ZM0 19.2V6.4C4.05333 6.4 7.06667 5.33333 9.04 3.2C11.0133 1.06667 15.1467 0 21.44 0C27.52 0 31.6 1.06667 33.68 3.2C35.76 5.33333 38.72 6.4 42.56 6.4C46.6133 6.4 49.6267 5.33333 51.6 3.2C53.5733 1.06667 57.7067 0 64 0C70.08 0 74.1867 1.06667 76.32 3.2C78.4533 5.33333 81.3867 6.4 85.12 6.4C89.1733 6.4 92.1867 5.33333 94.16 3.2C96.1333 1.06667 100.267 0 106.56 0C112.64 0 116.773 1.06667 118.96 3.2C121.147 5.33333 124.16 6.4 128 6.4V19.2C121.707 19.2 117.52 18.1333 115.44 16C113.36 13.8667 110.4 12.8 106.56 12.8C102.72 12.8 99.8133 13.8667 97.84 16C95.8667 18.1333 91.7333 19.2 85.44 19.2C79.36 19.2 75.2267 18.1333 73.04 16C70.8533 13.8667 67.84 12.8 64 12.8C59.9467 12.8 56.9867 13.8667 55.12 16C53.2533 18.1333 49.1733 19.2 42.88 19.2C36.5867 19.2 32.4 18.1333 30.32 16C28.24 13.8667 25.28 12.8 21.44 12.8C17.6 12.8 14.5867 13.8667 12.4 16C10.2133 18.1333 6.08 19.2 0 19.2Z" fill="#64748B"/>
</svg>
