<svg width="128" height="160" viewBox="0 0 128 160" fill="none" xmlns="http://www.w3.org/2000/svg">
<path d="M64 80C68.4 80 72.1667 78.4333 75.3 75.3C78.4333 72.1667 80 68.4 80 64C80 59.6 78.4333 55.8333 75.3 52.7C72.1667 49.5667 68.4 48 64 48C59.6 48 55.8333 49.5667 52.7 52.7C49.5667 55.8333 48 59.6 48 64C48 68.4 49.5667 72.1667 52.7 75.3C55.8333 78.4333 59.6 80 64 80ZM64 138.8C80.2667 123.867 92.3333 110.3 100.2 98.1C108.067 85.9 112 75.0667 112 65.6C112 51.0667 107.367 39.1667 98.1 29.9C88.8333 20.6333 77.4667 16 64 16C50.5333 16 39.1667 20.6333 29.9 29.9C20.6333 39.1667 16 51.0667 16 65.6C16 75.0667 19.9333 85.9 27.8 98.1C35.6667 110.3 47.7333 123.867 64 138.8ZM64 160C42.5333 141.733 26.5 124.767 15.9 109.1C5.3 93.4333 0 78.9333 0 65.6C0 45.6 6.43333 29.6667 19.3 17.8C32.1667 5.93333 47.0667 0 64 0C80.9333 0 95.8333 5.93333 108.7 17.8C121.567 29.6667 128 45.6 128 65.6C128 78.9333 122.7 93.4333 112.1 109.1C101.5 124.767 85.4667 141.733 64 160Z" fill="#F4F4F4"/>
</svg>
