<svg width="128" height="94" viewBox="0 0 128 94" fill="none" xmlns="http://www.w3.org/2000/svg">
<path d="M29.0909 93.0909C24.2424 93.0909 20.1212 91.3939 16.7273 88C13.3333 84.6061 11.6364 80.4849 11.6364 75.6364H0V11.6364C0 8.43636 1.13939 5.69697 3.41818 3.41818C5.69697 1.13939 8.43636 0 11.6364 0H93.0909V23.2727H110.545L128 46.5455V75.6364H116.364C116.364 80.4849 114.667 84.6061 111.273 88C107.879 91.3939 103.758 93.0909 98.9091 93.0909C94.0606 93.0909 89.9394 91.3939 86.5455 88C83.1515 84.6061 81.4545 80.4849 81.4545 75.6364H46.5455C46.5455 80.4849 44.8485 84.6061 41.4545 88C38.0606 91.3939 33.9394 93.0909 29.0909 93.0909ZM29.0909 81.4546C30.7394 81.4546 32.1212 80.897 33.2364 79.7818C34.3515 78.6667 34.9091 77.2849 34.9091 75.6364C34.9091 73.9879 34.3515 72.6061 33.2364 71.4909C32.1212 70.3758 30.7394 69.8182 29.0909 69.8182C27.4424 69.8182 26.0606 70.3758 24.9455 71.4909C23.8303 72.6061 23.2727 73.9879 23.2727 75.6364C23.2727 77.2849 23.8303 78.6667 24.9455 79.7818C26.0606 80.897 27.4424 81.4546 29.0909 81.4546ZM11.6364 64H16.2909C17.9394 62.2545 19.8303 60.8485 21.9636 59.7818C24.097 58.7152 26.4727 58.1818 29.0909 58.1818C31.7091 58.1818 34.0848 58.7152 36.2182 59.7818C38.3515 60.8485 40.2424 62.2545 41.8909 64H81.4545V11.6364H11.6364V64ZM98.9091 81.4546C100.558 81.4546 101.939 80.897 103.055 79.7818C104.17 78.6667 104.727 77.2849 104.727 75.6364C104.727 73.9879 104.17 72.6061 103.055 71.4909C101.939 70.3758 100.558 69.8182 98.9091 69.8182C97.2606 69.8182 95.8788 70.3758 94.7636 71.4909C93.6485 72.6061 93.0909 73.9879 93.0909 75.6364C93.0909 77.2849 93.6485 78.6667 94.7636 79.7818C95.8788 80.897 97.2606 81.4546 98.9091 81.4546ZM93.0909 52.3636H117.818L104.727 34.9091H93.0909V52.3636Z" fill="#195A8B"/>
</svg>
