<svg width="128" height="71" viewBox="0 0 128 71" fill="none" xmlns="http://www.w3.org/2000/svg">
<path d="M11.3161 0C11.5161 1.078 11.5161 2.15598 11.5161 3.48278C6.75605 4.62078 3.46005 7.2216 3.88405 12.78C4.21205 17.0904 6.52805 19.9688 10.6441 22.0524C10.6641 16.3172 13.2561 12.5712 18.3721 10.2332C18.8841 11.2492 19.3521 12.1808 19.9241 13.3188C19.2681 13.77 18.5561 14.0716 18.1121 14.6C16.9081 16.0432 15.4001 17.4268 14.7721 19.1164C13.5041 22.5348 14.5601 23.7904 18.1321 24.2116C22.6601 24.7464 27.0681 24.3172 31.9201 22.898C29.6441 21.8644 27.7961 21.026 25.4361 19.956C26.7001 18.9368 27.5001 18.1412 28.4321 17.5608C35.4641 13.194 43.2961 11.192 51.3721 10.0692C66.7803 7.92757 82.2763 9.2424 97.7323 9.06C99.88 9.03477 102.084 9.35957 104.184 9.8504C117.996 13.08 127.992 25.6432 128 39.6551C128.008 54.28 118.448 66.4005 104.048 69.7515C100.98 70.4651 97.7723 70.8395 94.6203 70.8704C82.0683 70.9947 69.5083 70.9221 56.952 70.9221C56.0683 70.9221 55.184 70.9221 54.296 70.9221C54.16 70.6816 54.0203 70.4411 53.8843 70.2011C56.0203 68.0907 58.16 65.9808 60.344 63.8213C58.4363 63.2752 56.3803 62.6875 53.976 62.0005C54.512 61.4251 54.8603 60.8981 55.3403 60.5637C60 57.3173 65.0363 56.6672 70.3317 58.6688C72.2757 59.4032 74.136 60.3963 75.9483 61.4181C82.1723 64.92 88.776 65.0416 95.3883 63.2224C101.664 61.4949 105.912 55.3557 105.952 48.8576C105.992 42.8616 101.764 36.9007 95.896 34.794C95.784 35.5356 95.672 36.2564 95.4843 37.4764C91.3323 37.4764 87.1803 37.4319 83.0363 37.5175C82.288 37.5327 81.184 37.8708 80.8683 38.4188C76.712 45.6388 70.032 48.814 62.24 50.1928C56.5323 51.2024 51.2641 53.0919 46.8401 57.4645C45.8801 56.6848 44.9441 55.9253 43.8721 55.0528C48.4361 50.1908 54.112 48.0847 60.232 46.63C63.9323 45.7511 67.672 44.6176 71.032 42.8968C73.512 41.628 75.4123 39.2244 77.9723 36.9687C75.696 36.174 74.2277 35.6092 72.72 35.1711C72.3477 35.0631 71.672 35.222 71.448 35.5056C67.752 40.1468 62.5003 41.8956 57.0363 42.894C50.4281 44.1015 44.6121 46.6836 39.6161 51.542C38.5961 50.7151 37.6601 49.954 36.5841 49.0804C41.5961 44.2367 47.224 41.11 53.8763 39.6372C57.5163 38.8311 61.0763 37.5616 64.5643 36.2256C65.968 35.6884 67.088 34.414 68.336 33.4751C68.312 33.1644 68.2923 32.8532 68.2683 32.542C67.152 32.3796 65.9563 31.8764 64.9323 32.1127C59.9483 33.2604 55.0923 32.698 50.3721 31.0719C49.5361 30.7836 49.164 29.1468 48.384 27.8015C48.096 27.9764 47.368 28.3975 46.66 28.8519C39.48 33.4596 31.8081 36.112 23.1481 34.7072C18.7161 33.9888 15.2321 31.7464 12.7201 27.9744C12.2481 27.2696 11.4961 26.584 10.7161 26.282C5.46405 24.2384 1.89607 20.668 0.12807 15.144C-0.0399295 13.3836 -0.0399207 11.6948 0.112079 9.68117C1.31208 7.4112 2.00008 5.11039 3.50007 3.61839C5.10407 2.01599 7.47211 1.174 9.50411 0C10.0401 0 10.5761 0 11.3161 0ZM34.5841 25.9404C29.1841 26.9052 23.7881 27.8703 18.6401 28.7903C22.6201 33.5212 36.0841 31.4052 41.2361 27.3004C38.9521 26.8976 37.4921 24.4496 34.5841 25.9404ZM40.548 16.6936C40.784 17.5644 40.8201 18.5848 41.3281 19.2472C41.6081 19.6148 43.0561 19.6824 43.3041 19.3632C43.8561 18.648 44.4841 17.3796 44.1921 16.742C43.4321 15.0748 42.04 15.2108 40.548 16.6936Z" fill="#F4F4F4"/>
</svg>
