<svg width="128" height="128" viewBox="0 0 128 128" fill="none" xmlns="http://www.w3.org/2000/svg">
<path d="M14.2222 56.8889C10.3111 56.8889 6.96296 55.4963 4.17778 52.7111C1.39259 49.9259 0 46.5778 0 42.6667V14.2222C0 10.3111 1.39259 6.96296 4.17778 4.17778C6.96296 1.39259 10.3111 0 14.2222 0H113.778C117.689 0 121.037 1.39259 123.822 4.17778C126.607 6.96296 128 10.3111 128 14.2222V42.6667C128 46.5778 126.607 49.9259 123.822 52.7111C121.037 55.4963 117.689 56.8889 113.778 56.8889H14.2222ZM14.2222 128C10.3111 128 6.96296 126.607 4.17778 123.822C1.39259 121.037 0 117.689 0 113.778V85.3333C0 81.4222 1.39259 78.0741 4.17778 75.2889C6.96296 72.5037 10.3111 71.1111 14.2222 71.1111H113.778C117.689 71.1111 121.037 72.5037 123.822 75.2889C126.607 78.0741 128 81.4222 128 85.3333V113.778C128 117.689 126.607 121.037 123.822 123.822C121.037 126.607 117.689 128 113.778 128H14.2222ZM14.2222 113.778H113.778V85.3333H14.2222V113.778Z" fill="#195A8B"/>
</svg>
