<svg width="64" height="64" viewBox="0 0 64 64" fill="none" xmlns="http://www.w3.org/2000/svg">
<path d="M-2.44379e-06 32C-2.44379e-06 33.8987 0.165332 35.7585 0.482285 37.5661C3.11657 52.5859 16.2255 64 32 64C32.4846 64 32.9665 63.9893 33.4457 63.968C50.448 63.2118 64 49.1886 64 32C64 14.3269 49.6731 0 32 0C14.3269 0 -2.44379e-06 14.3269 -2.44379e-06 32Z" fill="#F4F4F4"/>
<path d="M18.5346 51.5305C20.9027 52.4992 25.1449 53.638 31.9997 53.638C38.8546 53.638 43.0968 52.4992 45.4649 51.5305C47.0392 50.8866 47.9927 49.2774 47.8071 47.5865C47.4965 44.7596 46.6004 41.9455 44.5524 40.671C40.7783 38.3223 37.032 37.3215 37.032 37.3215C36.9 36.9108 36.7517 35.5517 36.674 34.1603C37.152 33.6638 37.6257 33.1457 38.1253 32.6547C39.0764 31.72 39.1834 30.384 39.5229 28.6607C40.1468 28.8381 40.3441 28.5411 40.5097 28.2885C40.6226 28.1158 40.667 27.9089 40.7093 27.7069C40.8613 26.9806 41.013 26.2544 41.1648 25.5281C41.2789 24.9826 41.3936 24.4238 41.3162 23.8718C41.2792 23.6109 41.1864 23.3374 40.9721 23.1838C40.7577 23.0305 40.3997 23.0675 40.2924 23.3084C40.2924 23.3084 40.6399 19.8902 40.6399 20.1779C40.9301 19.8557 41.1599 19.1538 41.0636 18.6113C40.9677 18.0692 40.7953 17.5415 40.7093 16.9978C40.6153 16.4008 40.6251 15.7846 40.4537 15.2049C40.2119 14.3876 39.634 13.7178 39.0459 13.1014C38.6292 12.6647 38.1984 12.2403 37.7284 11.862C36.7872 11.1055 35.6653 10.5362 34.4651 10.4017C34.0799 10.3589 33.6913 10.3607 33.304 10.3626C32.8695 10.3647 32.4347 10.3669 31.9999 10.3691C31.565 10.3669 31.1302 10.3647 30.6957 10.3626C30.3084 10.3607 29.9198 10.3589 29.5346 10.4017C28.3344 10.5362 27.2125 11.1055 26.2713 11.862C25.8013 12.2404 25.3705 12.6647 24.9538 13.1014C24.3657 13.7178 23.7878 14.3876 23.5461 15.2049C23.3746 15.7846 23.3845 16.4008 23.2904 16.9978C23.2044 17.5415 23.032 18.0692 22.9361 18.6113C22.8399 19.1537 23.0696 19.8556 23.3598 20.1779C23.3598 19.8902 23.7074 23.3084 23.7074 23.3084C23.6001 23.0675 23.242 23.0305 23.0277 23.1838C22.8133 23.3374 22.7205 23.6109 22.6835 23.8718C22.6061 24.4238 22.7208 24.9826 22.8349 25.5281C22.9867 26.2544 23.1384 26.9806 23.2905 27.7069C23.3327 27.9089 23.3771 28.1158 23.49 28.2885C23.6556 28.5411 23.853 28.8381 24.4769 28.6607C24.8164 30.384 24.9234 31.7199 25.8745 32.6547C26.374 33.1456 26.8477 33.6637 27.3257 34.1603C27.248 35.5517 27.0997 36.9108 26.9677 37.3215C26.9677 37.3215 23.2214 38.3223 19.4474 40.671C17.3994 41.9455 16.5032 44.7596 16.1926 47.5865C16.0068 49.2774 16.9603 50.8866 18.5346 51.5305Z" fill="#28669A"/>
</svg>
