<svg width="128" height="116" viewBox="0 0 128 116" fill="none" xmlns="http://www.w3.org/2000/svg">
<path d="M12.5427 115.779V32.804L0 5.46734L11.5779 0L26.6935 32.4824H101.307L116.422 0L128 5.46734L115.457 32.804V115.779H12.5427ZM51.1357 70.7538H76.8643C78.6868 70.7538 80.2144 70.1374 81.4472 68.9045C82.6801 67.6717 83.2965 66.1441 83.2965 64.3216C83.2965 62.4992 82.6801 60.9715 81.4472 59.7387C80.2144 58.5059 78.6868 57.8895 76.8643 57.8895H51.1357C49.3132 57.8895 47.7856 58.5059 46.5528 59.7387C45.3199 60.9715 44.7035 62.4992 44.7035 64.3216C44.7035 66.1441 45.3199 67.6717 46.5528 68.9045C47.7856 70.1374 49.3132 70.7538 51.1357 70.7538ZM25.407 102.915H102.593V45.3467H25.407V102.915Z" fill="#F4F4F4"/>
</svg>
