<svg width="128" height="104" viewBox="0 0 128 104" fill="none" xmlns="http://www.w3.org/2000/svg">
<path d="M42.6667 103.619C30.781 103.619 20.6984 99.4795 12.4191 91.2003C4.13969 82.9205 0 72.8384 0 60.9524C0 50.0825 3.58095 40.6095 10.7428 32.5333C17.9048 24.4571 26.8699 19.8095 37.6381 18.5905L28.0381 8.53335L36.5714 0L60.9524 24.381L36.5714 48.7619L28.0381 40.0762L37.0286 31.0857C29.8159 32.508 23.873 36.0127 19.2 41.6C14.527 47.1873 12.1905 53.6381 12.1905 60.9524C12.1905 69.384 15.1619 76.5713 21.1047 82.5145C27.0476 88.457 34.2349 91.4283 42.6667 91.4283H60.9524V103.619H42.6667ZM73.1428 48.7619V6.09524H128V48.7619H73.1428ZM73.1428 103.619V60.9524H128V103.619H73.1428ZM85.3336 91.4283H115.81V73.1428H85.3336V91.4283Z" fill="#F4F4F4"/>
</svg>
