<svg width="128" height="128" viewBox="0 0 128 128" fill="none" xmlns="http://www.w3.org/2000/svg">
<path d="M24.64 96.64C30.08 92.48 36.16 89.2 42.88 86.8C49.6 84.4 56.64 83.2 64 83.2C71.36 83.2 78.4 84.4 85.12 86.8C91.84 89.2 97.92 92.48 103.36 96.64C107.093 92.2667 110 87.3067 112.08 81.76C114.16 76.2133 115.2 70.2933 115.2 64C115.2 49.8133 110.213 37.7333 100.24 27.76C90.2667 17.7867 78.1867 12.8 64 12.8C49.8133 12.8 37.7333 17.7867 27.76 27.76C17.7867 37.7333 12.8 49.8133 12.8 64C12.8 70.2933 13.84 76.2133 15.92 81.76C18 87.3067 20.9067 92.2667 24.64 96.64ZM64 70.4C57.7067 70.4 52.4 68.24 48.08 63.92C43.76 59.6 41.6 54.2933 41.6 48C41.6 41.7067 43.76 36.4 48.08 32.08C52.4 27.76 57.7067 25.6 64 25.6C70.2933 25.6 75.6 27.76 79.92 32.08C84.24 36.4 86.4 41.7067 86.4 48C86.4 54.2933 84.24 59.6 79.92 63.92C75.6 68.24 70.2933 70.4 64 70.4ZM64 128C55.1467 128 46.8267 126.32 39.04 122.96C31.2533 119.6 24.48 115.04 18.72 109.28C12.96 103.52 8.4 96.7467 5.04 88.96C1.68 81.1733 0 72.8533 0 64C0 55.1467 1.68 46.8267 5.04 39.04C8.4 31.2533 12.96 24.48 18.72 18.72C24.48 12.96 31.2533 8.4 39.04 5.04C46.8267 1.68 55.1467 0 64 0C72.8533 0 81.1733 1.68 88.96 5.04C96.7467 8.4 103.52 12.96 109.28 18.72C115.04 24.48 119.6 31.2533 122.96 39.04C126.32 46.8267 128 55.1467 128 64C128 72.8533 126.32 81.1733 122.96 88.96C119.6 96.7467 115.04 103.52 109.28 109.28C103.52 115.04 96.7467 119.6 88.96 122.96C81.1733 126.32 72.8533 128 64 128ZM64 115.2C69.6533 115.2 74.9867 114.373 80 112.72C85.0133 111.067 89.6 108.693 93.76 105.6C89.6 102.507 85.0133 100.133 80 98.48C74.9867 96.8267 69.6533 96 64 96C58.3467 96 53.0133 96.8267 48 98.48C42.9867 100.133 38.4 102.507 34.24 105.6C38.4 108.693 42.9867 111.067 48 112.72C53.0133 114.373 58.3467 115.2 64 115.2ZM64 57.6C66.7733 57.6 69.0667 56.6933 70.88 54.88C72.6933 53.0667 73.6 50.7733 73.6 48C73.6 45.2267 72.6933 42.9333 70.88 41.12C69.0667 39.3067 66.7733 38.4 64 38.4C61.2267 38.4 58.9333 39.3067 57.12 41.12C55.3067 42.9333 54.4 45.2267 54.4 48C54.4 50.7733 55.3067 53.0667 57.12 54.88C58.9333 56.6933 61.2267 57.6 64 57.6Z" fill="#F4F4F4"/>
</svg>
