<svg width="128" height="128" viewBox="0 0 128 128" fill="none" xmlns="http://www.w3.org/2000/svg">
<path d="M19.2 128C15.68 128 12.6666 126.746 10.16 124.24C7.65333 121.734 6.40001 118.72 6.40001 115.2V43.04C4.48001 41.8666 2.93334 40.3466 1.76001 38.48C0.586676 36.6134 0 34.4534 0 32V12.8C0 9.28 1.25334 6.26664 3.76001 3.76C6.26668 1.25334 9.28 0 12.8 0H115.2C118.72 0 121.734 1.25334 124.24 3.76C126.746 6.26664 128 9.28 128 12.8V32C128 34.4534 127.414 36.6134 126.24 38.48C125.066 40.3466 123.52 41.8666 121.6 43.04V115.2C121.6 118.72 120.346 121.734 117.84 124.24C115.334 126.746 112.32 128 108.8 128H19.2ZM19.2 44.8V115.2H108.8V44.8H19.2ZM12.8 32H115.2V12.8H12.8V32ZM44.8 76.8H83.2V64H44.8V76.8Z" fill="#F4F4F4"/>
</svg>
