<svg width="16" height="17" viewBox="0 0 16 17" fill="none" xmlns="http://www.w3.org/2000/svg">
<path d="M2.4 16.75C1.96 16.75 1.58333 16.5933 1.27 16.28C0.956666 15.9667 0.800001 15.59 0.800001 15.15V6.13C0.560001 5.98333 0.366668 5.79333 0.220001 5.56C0.0733345 5.32667 0 5.05667 0 4.75V2.35C0 1.91 0.156668 1.53333 0.470001 1.22C0.783335 0.906668 1.16 0.75 1.6 0.75H14.4C14.84 0.75 15.2167 0.906668 15.53 1.22C15.8433 1.53333 16 1.91 16 2.35V4.75C16 5.05667 15.9267 5.32667 15.78 5.56C15.6333 5.79333 15.44 5.98333 15.2 6.13V15.15C15.2 15.59 15.0433 15.9667 14.73 16.28C14.4167 16.5933 14.04 16.75 13.6 16.75H2.4ZM2.4 6.35V15.15H13.6V6.35H2.4ZM1.6 4.75H14.4V2.35H1.6V4.75ZM5.6 10.35H10.4V8.75H5.6V10.35Z" fill="#64748B"/>
</svg>
