<svg width="128" height="71" viewBox="0 0 128 71" fill="none" xmlns="http://www.w3.org/2000/svg">
<path d="M11.3146 0C11.5155 1.07804 11.5155 2.15608 11.5155 3.48262C6.75593 4.62089 3.46065 7.22159 3.88313 12.7798C4.21077 17.0903 6.52627 19.9685 10.6424 22.0522C10.6649 16.3172 13.256 12.5712 18.3729 10.233C18.8839 11.2492 19.3523 12.1809 19.9244 13.3189C19.2681 13.77 18.5544 14.0713 18.1133 14.6001C16.9093 16.0433 15.4009 17.4268 14.7738 19.1164C13.5051 22.5349 14.5596 23.7901 18.1303 24.2117C22.6598 24.7465 27.0693 24.3169 31.9211 22.8979C29.6434 21.8645 27.7946 21.0258 25.4362 19.9559C26.699 18.9367 27.4993 18.141 28.4334 17.5608C35.4637 13.1939 43.2955 11.192 51.374 10.069C66.78 7.92738 82.2761 9.24222 97.7325 9.05988C99.8818 9.03452 102.083 9.35944 104.183 9.85043C117.997 13.0797 127.992 25.643 128 39.6553C128.008 54.28 118.446 66.4003 104.049 69.7514C100.982 70.4652 97.7711 70.8393 94.6217 70.8705C82.0667 70.9948 69.5097 70.9217 56.9535 70.9217C56.0682 70.9217 55.1829 70.9217 54.2976 70.9217C54.1596 70.6815 54.0217 70.4413 53.8837 70.2011C56.0213 68.0909 58.1588 65.9807 60.3459 63.8216C58.4351 63.2753 56.3792 62.6875 53.9766 62.0006C54.5136 61.4253 54.86 60.8983 55.3404 60.5636C59.9997 57.3177 65.0368 56.667 70.3329 58.6689C72.275 59.403 74.1347 60.3964 75.9496 61.4179C82.1719 64.9199 88.776 65.0417 95.3866 63.2223C101.663 61.4948 105.91 55.3554 105.953 48.8574C105.992 42.8616 101.763 36.9007 95.8958 34.7938C95.7823 35.5357 95.6721 36.2561 95.4854 37.4764C91.3312 37.4764 87.182 37.432 83.0355 37.5174C82.289 37.5328 81.1843 37.8706 80.8688 38.4186C76.713 45.6389 70.0335 48.8138 62.239 50.1925C56.5302 51.2023 51.2626 53.0918 46.8402 57.4645C45.8803 56.6847 44.9451 55.925 43.8713 55.0527C48.4371 50.1906 54.1103 48.0848 60.2325 46.6301C63.9311 45.7512 67.6714 44.6177 71.0338 42.8968C73.5126 41.6281 75.4105 39.2242 77.9734 36.9688C75.6974 36.174 74.2275 35.6089 72.7206 35.1712C72.3483 35.063 71.6719 35.2218 71.4462 35.5054C67.7516 40.1468 62.5001 41.8956 57.0368 42.8939C50.4266 44.1017 44.6125 46.6835 39.6149 51.5421C38.5964 50.7152 37.6586 49.9539 36.5827 49.0805C41.5969 44.2369 47.2259 41.11 53.8774 39.6371C57.5163 38.8313 61.0741 37.5614 64.5632 36.2256C65.9662 35.6884 67.0869 34.4141 68.3361 33.4753C68.3138 33.1642 68.2914 32.853 68.269 32.5419C67.1516 32.3795 65.9557 31.8763 64.93 32.1126C59.9461 33.2605 55.0915 32.6978 50.3728 31.0719C49.5352 30.7833 49.1621 29.1466 48.3828 27.8015C48.0952 27.9761 47.3663 28.3974 46.6587 28.8517C39.4819 33.4597 31.8065 36.1119 23.1478 34.7073C18.7177 33.9886 15.233 31.7461 12.7194 27.9744C12.2496 27.2695 11.4942 26.5839 10.7178 26.2819C5.4652 24.2385 1.89653 20.6679 0.126423 15.144C-0.0399225 13.3836 -0.0399225 11.6948 0.113503 9.68103C1.31188 7.41121 2.00166 5.11013 3.49822 3.61848C5.10586 2.0161 7.47119 1.17391 9.5059 0C10.0418 0 10.5777 0 11.3146 0ZM34.5823 25.9402C29.1842 26.9052 23.7862 27.8703 18.6402 28.7903C22.6189 33.5213 36.0824 31.405 41.2371 27.3002C38.9524 26.8974 37.4938 24.4496 34.5823 25.9402ZM40.5498 16.6934C40.7834 17.5643 40.8214 18.5847 41.3277 19.2473C41.6086 19.6148 43.0572 19.6824 43.3039 19.3632C43.8566 18.648 44.4835 17.3793 44.1923 16.7418C43.4305 15.0745 42.0414 15.2106 40.5498 16.6934Z" fill="#03B2EB"/>
</svg>
