<svg width="600" height="121" viewBox="0 0 600 121" fill="none" xmlns="http://www.w3.org/2000/svg">
<g clip-path="url(#clip0_535_1849)">
<path d="M14.6888 0.62207C14.9378 1.95759 14.9378 3.2931 14.9378 4.93648C9.04138 6.34661 4.95906 9.56845 5.48245 16.4542C5.88834 21.7942 8.75687 25.3598 13.856 27.9412C13.884 20.8364 17.0939 16.1957 23.433 13.299C24.0659 14.558 24.6462 15.7122 25.355 17.122C24.5419 17.6808 23.6578 18.0542 23.1114 18.7092C21.6198 20.4971 19.7511 22.2111 18.9743 24.3042C17.4025 28.5391 18.7089 30.0942 23.1323 30.6164C28.7438 31.279 34.2064 30.7468 40.217 28.9888C37.3952 27.7087 35.1049 26.6696 32.1832 25.3442C33.7477 24.0816 34.739 23.0959 35.8962 22.3771C44.6057 16.9671 54.308 14.4872 64.3159 13.0959C83.4015 10.4428 102.599 12.0717 121.747 11.8458C124.409 11.8144 127.136 12.2169 129.738 12.8252C146.851 16.8258 159.234 32.3895 159.243 49.7486C159.253 67.8662 147.408 82.8813 129.571 87.0328C125.772 87.9171 121.794 88.3806 117.893 88.4192C102.339 88.5731 86.7832 88.4826 71.228 88.4826C70.1313 88.4826 69.0346 88.4826 67.9378 88.4826C67.7669 88.185 67.596 87.8875 67.4251 87.5899C70.0732 84.9757 72.7212 82.3615 75.4306 79.6867C73.0635 79.0099 70.5166 78.2818 67.5401 77.4308C68.2053 76.7181 68.6345 76.0652 69.2297 75.6506C75.0018 71.6294 81.242 70.8233 87.803 73.3034C90.2089 74.2128 92.5128 75.4434 94.7612 76.7089C102.47 81.0473 110.651 81.1982 118.84 78.9442C126.616 76.8041 131.878 69.1984 131.93 61.1485C131.979 53.7207 126.739 46.3361 119.471 43.7259C119.331 44.645 119.194 45.5375 118.963 47.0493C113.816 47.0493 108.676 46.9942 103.539 47.1001C102.615 47.1191 101.246 47.5376 100.855 48.2165C95.7068 57.1613 87.4321 61.0945 77.7759 62.8025C70.7036 64.0535 64.178 66.3942 58.6993 71.8113C57.5101 70.8453 56.3515 69.9041 55.0213 68.8234C60.6776 62.8002 67.7058 60.1914 75.2902 58.3892C79.8722 57.3005 84.5058 55.8962 88.6712 53.7643C91.7421 52.1925 94.0933 49.2145 97.2683 46.4204C94.4487 45.4358 92.6277 44.7358 90.7609 44.1934C90.2997 44.0595 89.4618 44.2562 89.1821 44.6075C84.6051 50.3574 78.0994 52.524 71.3313 53.7606C63.1423 55.2569 55.9396 58.4554 49.7483 64.4744C48.4866 63.4501 47.3248 62.5069 45.9919 61.4249C52.2037 55.4244 59.1771 51.5507 67.4173 49.726C71.9253 48.7277 76.3329 47.1545 80.6552 45.4997C82.3933 44.8343 83.7817 43.2556 85.3293 42.0925C85.3016 41.7071 85.2739 41.3216 85.2462 40.9362C83.8618 40.7351 82.3803 40.1117 81.1097 40.4044C74.9354 41.8265 68.9213 41.1294 63.0756 39.1152C62.0379 38.7576 61.5757 36.73 60.6103 35.0636C60.254 35.28 59.3511 35.8018 58.4744 36.3647C49.5836 42.0732 40.0749 45.3589 29.3482 43.6188C23.8601 42.7285 19.5431 39.9504 16.4291 35.2778C15.8471 34.4045 14.9113 33.5552 13.9495 33.1811C7.44237 30.6497 3.02136 26.2262 0.828493 19.3831C0.622418 17.2022 0.622418 15.1101 0.812487 12.6153C2.29708 9.80336 3.15161 6.95269 5.0056 5.10478C6.99721 3.11969 9.92747 2.07635 12.4481 0.62207C13.112 0.62207 13.7759 0.62207 14.6888 0.62207ZM43.5138 32.7578C36.8264 33.9533 30.1391 35.1488 23.764 36.2885C28.693 42.1495 45.3722 39.5278 51.758 34.4426C48.9276 33.9436 47.1207 30.9112 43.5138 32.7578ZM50.9065 21.3025C51.1959 22.3814 51.243 23.6456 51.8702 24.4664C52.2182 24.9217 54.0127 25.0054 54.3184 24.6099C55.0031 23.724 55.7798 22.1523 55.4189 21.3624C54.4753 19.297 52.7544 19.4656 50.9065 21.3025Z" fill="white"/>
<path d="M473.278 120.747C473.029 115.505 473.029 110.263 473.029 105.117C475.913 103.988 477.344 104.778 478.114 107.443C478.85 109.99 479.97 112.427 481.228 115.714C482.484 112.45 483.637 109.93 484.412 107.299C485.114 104.916 486.436 104.146 488.787 104.82C488.787 109.929 488.787 115.093 488.688 120.502C487.926 120.747 487.262 120.747 486.386 120.46C486.173 117.469 486.173 114.766 486.173 111.548C484.518 114.986 483.13 117.866 481.743 120.747C481.276 120.747 480.809 120.747 480.101 120.511C478.84 117.464 477.82 114.652 476.621 111.349C476.199 114.952 475.859 117.85 475.519 120.747C474.855 120.747 474.191 120.747 473.278 120.747Z" fill="white"/>
<path d="M315.81 120.747C315.561 115.487 315.561 110.226 315.561 105.101C318.034 104.065 319.383 104.809 320.466 106.728C321.911 109.29 323.556 111.739 325.74 114.047C325.74 111.008 325.74 107.97 325.74 104.793C326.863 104.793 327.654 104.793 328.988 104.793C328.988 109.962 328.988 115.088 329.121 120.48C329.253 120.747 328.942 120.747 328.629 120.585C326.179 120.667 324.926 119.606 323.92 117.797C322.515 115.272 320.878 112.876 319.131 110.092C318.726 114.088 318.388 117.418 318.05 120.747C317.386 120.747 316.722 120.747 315.81 120.747Z" fill="white"/>
<path d="M568.549 120.747C568.258 115.512 568.258 110.277 568.258 104.611C572.183 104.611 575.651 104.55 579.113 104.68C579.597 104.699 580.046 105.655 580.511 106.177C579.958 106.618 579.43 107.398 578.849 107.439C576.701 107.592 574.535 107.5 572.03 107.5C571.973 108.611 571.925 109.548 571.864 110.749C574.39 110.749 576.629 110.749 578.886 110.749C580.078 113.259 579.029 113.844 576.89 113.741C575.361 113.668 573.827 113.727 572.003 113.727C571.935 115.051 571.88 116.134 571.801 117.672C574.125 117.672 576.265 117.788 578.386 117.639C580.456 117.493 580.951 118.424 580.651 120.483C576.751 120.747 572.796 120.747 568.549 120.747Z" fill="white"/>
<path d="M522.448 120.747C522.199 115.502 522.199 110.257 522.199 105.108C524.635 104.076 525.952 104.826 527.028 106.74C528.466 109.298 530.118 111.735 532.235 114.072C532.235 111.751 532.341 109.423 532.204 107.11C532.08 105.01 532.81 104.196 535.556 104.989C535.34 109.948 535.115 115.11 534.768 120.509C533.983 120.747 533.32 120.747 532.355 120.537C530.026 117.068 527.997 113.81 525.807 110.291C525.396 114.137 525.042 117.442 524.689 120.747C524.025 120.747 523.361 120.747 522.448 120.747Z" fill="white"/>
<path d="M500.705 120.747C500.414 115.482 500.414 110.216 500.414 104.624C503.806 104.624 507.096 104.562 510.379 104.684C510.939 104.705 511.47 105.515 512.014 105.96C511.421 106.464 510.86 107.348 510.229 107.401C508.087 107.583 505.92 107.471 503.569 107.471C503.47 108.623 503.394 109.504 503.279 110.846C505.116 110.846 506.739 110.895 508.357 110.833C510.171 110.765 511.576 110.966 510.568 113.61C508.394 113.61 506.143 113.61 503.612 113.61C503.612 115.022 503.612 116.176 503.612 117.584C506.279 117.584 508.942 117.584 512.106 117.584C511.968 118.681 511.867 119.485 511.691 120.518C508.077 120.747 504.537 120.747 500.705 120.747Z" fill="white"/>
<path d="M406.058 120.746C405.809 115.502 405.809 110.257 405.809 104.684C408.84 104.684 411.521 104.44 414.141 104.739C418.496 105.235 419.606 108.931 417.234 112.432C417.659 115.394 418.004 117.795 418.303 120.471C417.392 120.746 416.528 120.746 415.473 120.484C414.811 114.372 414.365 113.974 409.408 114.854C409.033 116.846 408.666 118.796 408.298 120.746C407.634 120.746 406.97 120.746 406.058 120.746ZM409.602 107.473C409.368 108.865 409.134 110.257 408.872 111.811C410.226 111.875 411.158 112.192 411.803 111.892C413.031 111.32 414.866 110.554 415.066 109.584C415.498 107.49 413.472 107.425 411.938 107.295C411.331 107.244 410.714 107.315 409.602 107.473Z" fill="white"/>
<path d="M338.838 120.747C340.392 115.706 342.153 110.649 344.062 105.649C344.257 105.139 345.395 104.632 345.998 104.729C346.732 104.847 347.72 105.463 347.981 106.112C349.868 110.806 351.599 115.562 353.453 120.523C352.46 120.747 351.393 120.747 350.164 120.508C349.711 117.673 348.366 116.997 345.701 116.776C342.293 116.494 342.399 119.214 341.079 120.747C340.415 120.747 339.751 120.747 338.838 120.747ZM346.75 110.506C346.457 110.008 346.163 109.51 345.677 108.686C345.037 110.651 344.517 112.249 343.918 114.089C345.443 114.089 346.563 114.089 347.938 114.089C347.526 112.847 347.212 111.897 346.75 110.506Z" fill="white"/>
<path d="M386.171 120.746C382.928 119.135 381.861 116.645 382.103 113.317C382.305 110.554 382.145 107.765 382.145 104.824C383.272 104.824 384.13 104.824 385.282 104.824C385.282 108.045 385.34 111.133 385.264 114.216C385.204 116.634 386.247 118.029 388.679 118.022C391.15 118.014 392.078 116.519 392.019 114.146C391.944 111.151 392.001 108.152 392.001 104.884C392.997 104.797 393.855 104.723 395.074 104.617C395.074 108.658 395.39 112.495 394.917 116.233C394.729 117.717 392.793 118.981 391.573 120.546C389.812 120.746 388.132 120.746 386.171 120.746Z" fill="white"/>
<path d="M427.854 120.747C429.405 115.911 431.156 111.051 433.089 106.264C433.378 105.547 434.477 104.833 435.269 104.748C435.901 104.679 437.014 105.419 437.267 106.056C439.129 110.753 440.829 115.515 442.556 120.502C441.667 120.747 440.803 120.747 439.65 120.509C438.948 117.589 437.456 116.908 434.734 116.796C431.482 116.662 431.637 119.043 430.706 120.747C429.842 120.747 428.977 120.747 427.854 120.747ZM434.374 110.617C433.981 111.727 433.588 112.838 433.067 114.31C434.67 114.222 435.795 114.161 437.185 114.085C436.497 112.04 435.967 110.465 435.32 108.543C434.926 109.315 434.702 109.755 434.374 110.617Z" fill="white"/>
<path d="M600.622 28.9938C600.234 29.8208 599.8 30.3627 599.467 30.9605C597.48 34.5184 593.754 36.1611 590.047 35.0857C586.294 33.9969 583.887 30.7297 584.09 26.9984C584.3 23.1327 587.255 19.9188 591.075 19.4026C594.888 18.8872 598.446 21.0495 599.904 24.7863C600.053 25.1662 600.104 25.5838 600.412 26.0625C600.622 27.0056 600.622 27.87 600.622 28.9938ZM589.098 32.1028C591.741 33.5756 594.172 33.4693 596.683 30.9103C598.426 27.693 598.268 25.0538 596.023 23.216C593.727 21.336 591.274 21.0007 588.407 23.1847C585.616 26.6285 585.722 28.8679 589.098 32.1028Z" fill="white"/>
<path d="M550.474 120.747C550.207 116.519 550.207 112.291 550.207 108.182C549.15 106.238 544.791 109.48 545.412 104.605C549.408 104.605 553.319 104.551 557.226 104.67C557.743 104.686 558.234 105.587 558.737 106.077C558.214 106.552 557.76 107.275 557.152 107.445C556.201 107.71 555.147 107.6 553.738 107.669C553.738 111.959 553.738 116.076 553.84 120.47C552.875 120.747 551.808 120.747 550.474 120.747Z" fill="white"/>
<path d="M364.375 120.747C364.108 116.519 364.108 112.291 364.108 108.182C363.05 106.238 358.691 109.48 359.312 104.605C363.308 104.605 367.22 104.551 371.126 104.67C371.644 104.686 372.134 105.587 372.637 106.077C372.114 106.552 371.66 107.275 371.052 107.445C370.102 107.71 369.047 107.6 367.639 107.669C367.639 111.959 367.639 116.076 367.74 120.47C366.775 120.747 365.708 120.747 364.375 120.747Z" fill="white"/>
<path d="M452.781 120.747C452.49 115.503 452.49 110.259 452.49 104.962C454.695 104.087 455.487 104.828 455.412 107.117C455.301 110.501 455.384 113.892 455.384 117.518C457.944 117.518 460.278 117.518 463.203 117.518C462.961 118.694 462.788 119.535 462.532 120.561C459.323 120.747 456.197 120.747 452.781 120.747Z" fill="white"/>
<path d="M193.478 38.7757C193.478 55.437 193.478 71.8125 193.478 88.4591C188.664 88.4591 183.984 88.4591 179.102 88.4591C179.102 62.9575 179.102 37.4963 179.102 11.508C183.961 11.508 188.887 11.4043 193.799 11.6143C194.581 11.6477 195.46 12.992 196.027 13.8975C206.245 30.2152 216.42 46.5589 226.607 62.8953C227.036 63.5823 227.491 64.2525 228.34 65.5509C228.34 47.2566 228.34 29.6367 228.34 11.7479C233.327 11.7479 238.007 11.7479 242.89 11.7479C242.89 37.2518 242.89 62.7132 242.89 88.6921C238.028 88.6921 233.102 88.797 228.19 88.5841C227.414 88.5504 226.551 87.1747 225.978 86.2625C216.018 70.3952 206.098 54.5029 196.166 38.6177C195.466 37.4977 194.747 36.3895 193.646 34.663C193.571 36.3711 193.525 37.4305 193.478 38.7757Z" fill="white"/>
<path d="M253.641 80.4625C249.978 69.986 253.473 61.7148 263.625 57.9851C269.211 55.933 275.208 55.0045 281.012 53.5382C282.71 53.1091 284.417 52.6693 286.056 52.0608C288.098 51.3025 289.584 49.7059 288.958 47.5561C288.471 45.8846 287.276 43.726 285.846 43.1516C281.408 41.3685 276.699 41.5291 272.227 43.3591C268.511 44.8798 268.483 48.4657 268.027 51.9584C263.814 51.9584 259.612 51.9584 255.049 51.9584C254.639 46.8978 256.165 42.4026 259.653 38.5778C264.805 32.929 271.706 31.6256 278.85 31.2793C281.717 31.1403 284.673 31.4091 287.493 31.9713C296.708 33.808 301.829 40.03 301.951 49.4568C302.057 57.7466 301.974 66.0389 301.975 74.3301C301.975 75.3388 301.975 76.3475 301.975 77.5249C303.588 77.6373 304.895 77.7284 306.379 77.8319C306.379 81.5948 306.379 85.2656 306.379 88.9148C297.908 90.7082 293.103 89.1043 289.65 83.3537C282.19 90.1877 273.498 91.6789 263.969 89.0844C259.359 87.8294 255.872 85.0414 253.641 80.4625ZM283.021 77.4744C288.492 73.9944 290.125 69.5271 288.732 61.7908C283.619 63.0119 278.476 64.1214 273.411 65.5119C271.564 66.0188 269.737 66.9721 268.193 68.1168C265.87 69.8397 265.464 72.3558 266.176 75.1086C266.84 77.6727 268.645 79.1983 271.077 79.0992C274.933 78.9421 278.765 78.2061 283.021 77.4744Z" fill="white"/>
<path d="M542.965 56.2377C548.361 55.0451 553.55 54.063 558.662 52.7766C562.566 51.7942 564.079 49.9046 563.777 47.1805C563.48 44.5023 561.4 42.7532 557.79 42.3215C556.152 42.1255 554.476 42.0117 552.834 42.1153C545.247 42.5934 543.511 44.2687 542.55 52.1887C540.487 52.1887 538.359 52.1886 536.232 52.1886C534.072 52.1886 531.911 52.1887 529.779 52.1887C529.023 44.6157 532.801 37.6395 539.819 34.3991C548.355 30.4582 557.303 29.916 566.12 33.2102C574.115 36.1975 576.605 42.9745 576.675 50.9009C576.744 58.5734 576.69 66.247 576.69 73.9201C576.69 75.0459 576.69 76.1717 576.69 77.4986C578.039 77.6106 579.146 77.7025 580.483 77.8136C580.483 81.536 580.483 85.2886 580.483 89.3366C574.451 88.9311 567.657 91.1629 564.337 83.2607C557.435 89.7701 549.297 91.3473 540.369 89.6034C532.786 88.1225 527.873 82.8856 527.002 75.6228C526.074 67.8853 529.398 61.8972 536.612 58.5625C538.576 57.6546 540.683 57.0573 542.965 56.2377ZM563.286 70.4071C563.516 67.5489 563.747 64.6906 563.995 61.6161C558.265 62.9908 552.937 64.162 547.678 65.5915C545.929 66.067 544.165 66.9602 542.746 68.0879C539.108 70.9781 539.978 77.5012 544.17 78.8477C549.843 80.6702 560.653 79.0774 563.286 70.4071Z" fill="white"/>
<path d="M477.452 84.6025C472.34 80.4687 470.175 75.2242 470.215 68.7053C474.486 68.7053 478.679 68.7053 482.998 68.7053C483.017 68.7253 483.246 68.8552 483.282 69.0253C485.201 78.3285 496.054 82.9986 504.2 77.7718C505.679 76.8228 507.07 74.4415 507.018 72.7678C506.966 71.1144 505.373 68.6653 503.861 68.0661C499.96 66.5196 495.686 65.9459 491.643 64.7131C487.514 63.4538 483.181 62.4098 479.466 60.3276C469.735 54.8729 469.555 41.5663 478.843 35.358C487.464 29.5958 503.645 30.1494 511.815 36.4883C516.374 40.025 518.54 44.7278 518.686 50.6963C514.444 50.6963 510.265 50.6963 506.045 50.6963C502.589 42.94 497.671 40.4689 490.098 42.6582C487.553 43.3939 485.721 44.807 485.682 47.5589C485.645 50.1429 487.55 51.3815 489.796 51.953C494.506 53.1517 499.289 54.0827 503.957 55.4207C507.017 56.2976 510.102 57.3794 512.872 58.9157C522.967 64.5139 523.636 79.1037 514.117 85.6875C507.436 90.3087 499.789 90.7242 492.027 89.9737C486.812 89.4694 481.876 88.0035 477.452 84.6025Z" fill="white"/>
<path d="M349.278 80.6879C348.558 77.3561 347.447 74.2493 347.389 71.1229C347.172 59.5165 347.302 47.9036 347.302 36.2932C347.302 35.2834 347.302 34.2735 347.302 33.127C351.759 33.127 355.955 33.127 360.477 33.127C360.477 38.5781 360.477 43.9326 360.477 49.2871C360.477 55.2997 360.476 61.3122 360.478 67.3248C360.48 75.1408 363.389 78.8146 369.751 79.042C377.918 79.3339 383.653 74.884 383.903 67.5365C384.186 59.2529 384.006 50.9535 384.023 42.661C384.03 39.5643 384.024 36.4677 384.024 33.1793C388.363 33.1793 392.552 33.1793 396.919 33.1793C396.919 51.5722 396.919 69.9711 396.919 88.5429C392.69 88.5429 388.48 88.5429 384.165 88.5429C384.077 87.1848 383.993 85.892 383.886 84.2503C377.335 89.6338 370.076 91.1262 362.148 89.7771C356.509 88.8176 352.145 85.9997 349.278 80.6879Z" fill="white"/>
<path d="M339.254 77.8965C339.537 81.3837 339.537 84.8691 339.537 88.5834C334.612 89.5669 329.572 89.9926 324.636 88.3333C318.542 86.2851 316.402 81.2871 316.238 75.4472C315.979 66.2228 316.108 56.9874 316.075 47.7567C316.071 46.6306 316.074 45.5046 316.074 43.977C313.331 43.977 310.808 43.977 308.191 43.977C308.191 40.1708 308.191 36.7749 308.191 33.0286C310.742 33.0286 313.27 33.0286 316.023 33.0286C316.023 27.2221 316.023 21.7597 316.023 16.0703C320.437 16.0703 324.617 16.0703 329.023 16.0703C329.023 21.5939 329.023 27.053 329.023 32.8274C332.594 32.8274 335.959 32.8274 339.53 32.8274C339.53 36.5999 339.53 40.0621 339.53 43.87C334.69 43.87 329.87 43.87 325.082 43.87C325.04 44.4051 324.935 44.7025 325.022 44.7774C329.265 48.429 329.438 53.2574 329.206 58.3406C328.989 63.1022 329.113 67.8821 329.176 72.6528C329.242 77.7534 330.237 78.6668 335.279 78.3941C336.515 78.3272 337.741 78.0664 339.254 77.8965Z" fill="white"/>
<path d="M408.92 74.6893C408.92 60.7018 408.92 47.0255 408.92 33.1682C413.288 33.1682 417.479 33.1682 421.94 33.1682C421.94 34.9875 421.94 36.7903 421.94 39.5244C427.241 31.7829 434.12 30.8389 441.861 32.1983C441.861 36.3185 441.861 40.2211 441.861 44.3537C439.052 44.3537 436.32 43.9608 433.745 44.4295C426.827 45.6886 422.094 51.7778 422.015 59.2616C421.925 67.9743 421.994 76.6887 421.993 85.4024C421.993 86.4115 421.993 87.4206 421.993 88.5722C417.592 88.5722 413.477 88.5722 408.92 88.5722C408.92 84.0221 408.92 79.5113 408.92 74.6893Z" fill="white"/>
<path d="M449.394 88.0889C449.292 69.9805 449.284 52.1453 449.281 34.31C449.281 34.0051 449.342 33.7002 449.397 33.1904C453.582 33.1904 457.775 33.1904 462.162 33.1904C462.162 51.5792 462.162 69.9707 462.162 88.362C457.881 88.362 453.685 88.362 449.394 88.0889Z" fill="white"/>
<path d="M462.83 12.6587C463.023 17.1339 463.023 21.3762 463.023 25.8351C458.229 25.8351 453.522 25.8351 448.609 25.8351C448.609 21.4354 448.609 17.0339 448.609 12.4258C453.358 12.4258 457.998 12.4258 462.83 12.6587Z" fill="white"/>
<path d="M595.371 30.8611C594.234 30.4428 593.001 29.8298 591.658 29.1619C591.279 29.597 590.595 30.3812 589.678 31.1137C589.437 28.7976 589.43 26.5334 589.432 23.9868C590.357 23.6602 591.276 23.5445 592.189 23.5849C594.8 23.7006 595.595 24.9213 595.063 27.3866C594.84 28.4164 595.188 29.5693 595.371 30.8611Z" fill="white"/>
</g>
<defs>
<clipPath id="clip0_535_1849">
<rect width="600" height="120.125" fill="white"/>
</clipPath>
</defs>
</svg>
