<svg width="20" height="16" viewBox="0 0 20 16" fill="none" xmlns="http://www.w3.org/2000/svg">
<path d="M6.58824 16C4.75294 16 3.19608 15.3608 1.91765 14.0824C0.639216 12.8039 0 11.2471 0 9.41176C0 7.73333 0.552941 6.27059 1.65882 5.02353C2.76471 3.77647 4.14902 3.05882 5.81176 2.87059L4.32941 1.31765L5.64706 0L9.41176 3.76471L5.64706 7.52941L4.32941 6.18824L5.71765 4.8C4.60392 5.01961 3.68627 5.56078 2.96471 6.42353C2.24314 7.28627 1.88235 8.28235 1.88235 9.41176C1.88235 10.7137 2.34118 11.8235 3.25882 12.7412C4.17647 13.6588 5.28627 14.1176 6.58824 14.1176H9.41176V16H6.58824ZM11.2941 7.52941V0.941176H19.7647V7.52941H11.2941ZM11.2941 16V9.41176H19.7647V16H11.2941ZM13.1765 14.1176H17.8824V11.2941H13.1765V14.1176Z" fill="#64748B"/>
</svg>
