<svg width="24" height="14" viewBox="0 0 24 14" fill="none" xmlns="http://www.w3.org/2000/svg">
<path d="M2.12176 0C2.15926 0.202125 2.15926 0.404247 2.15926 0.653022C1.26676 0.866397 0.648759 1.35405 0.728259 2.39625C0.789759 3.20445 1.22401 3.74415 1.99576 4.13482C1.99951 3.05947 2.48551 2.3571 3.44476 1.91872C3.54076 2.10922 3.62851 2.2839 3.73576 2.49727C3.61276 2.58187 3.47926 2.63842 3.39601 2.7375C3.17026 3.0081 2.88751 3.26752 2.76976 3.58432C2.53201 4.22527 2.73002 4.4607 3.39977 4.53967C4.24877 4.63995 5.07526 4.55947 5.98501 4.29337C5.55826 4.09957 5.21176 3.94237 4.76926 3.74175C5.00626 3.55065 5.15626 3.40147 5.33101 3.29265C6.64951 2.47387 8.11801 2.0985 9.63226 1.88797C12.5213 1.48642 15.4268 1.73295 18.3248 1.69875C18.7275 1.69402 19.1408 1.75492 19.5345 1.84695C22.1243 2.4525 23.9985 4.8081 24 7.43534C24.0015 10.1775 22.209 12.4501 19.509 13.0784C18.9337 13.2122 18.3323 13.2824 17.7413 13.2882C15.3878 13.3115 13.0328 13.2979 10.6785 13.2979C10.5128 13.2979 10.347 13.2979 10.1805 13.2979C10.155 13.2528 10.1288 13.2077 10.1033 13.1627C10.5038 12.767 10.905 12.3714 11.3145 11.9665C10.9568 11.8641 10.5713 11.7539 10.1205 11.6251C10.221 11.5172 10.2863 11.4184 10.3763 11.3557C11.25 10.747 12.1943 10.6251 13.1872 11.0004C13.5517 11.1381 13.9005 11.3243 14.2403 11.5159C15.4073 12.1725 16.6455 12.1953 17.8853 11.8542C19.062 11.5303 19.8585 10.3792 19.866 9.16079C19.8735 8.03654 19.0807 6.91889 17.9805 6.52387C17.9595 6.66292 17.9385 6.79807 17.9033 7.02682C17.1248 7.02682 16.3463 7.01849 15.5693 7.03454C15.429 7.03739 15.222 7.10077 15.1628 7.20352C14.3835 8.55727 13.131 9.15262 11.67 9.41114C10.5998 9.60044 9.61201 9.95474 8.78251 10.7746C8.60251 10.6284 8.42701 10.486 8.22601 10.3224C9.08176 9.41077 10.146 9.01589 11.2935 8.74312C11.9873 8.57834 12.6885 8.36579 13.3185 8.04314C13.7835 7.80524 14.1398 7.35457 14.6198 6.93164C14.193 6.78262 13.9177 6.67672 13.635 6.59459C13.5652 6.57434 13.4385 6.60412 13.3965 6.6573C12.7035 7.52752 11.7188 7.85542 10.6943 8.04262C9.45526 8.26904 8.36476 8.75317 7.42801 9.66412C7.23676 9.50909 7.06126 9.36637 6.85951 9.20257C7.79926 8.29439 8.8545 7.70812 10.1018 7.43197C10.7843 7.28084 11.4518 7.0428 12.1058 6.7923C12.369 6.69157 12.579 6.45262 12.813 6.27659C12.8085 6.21832 12.8048 6.15997 12.8003 6.10162C12.591 6.07117 12.3668 5.97682 12.1748 6.02114C11.2403 6.23632 10.3298 6.13087 9.44476 5.82599C9.28801 5.77192 9.21825 5.46502 9.072 5.21279C9.018 5.24557 8.8815 5.32454 8.74875 5.40974C7.4025 6.27367 5.96401 6.771 4.34026 6.5076C3.50926 6.3729 2.85601 5.95245 2.38501 5.2452C2.29651 5.11305 2.15551 4.9845 2.00926 4.92787C1.02451 4.5447 0.355513 3.87525 0.0240132 2.8395C-0.00748678 2.50942 -0.00748513 2.19277 0.0210148 1.81522C0.246015 1.3896 0.375015 0.958198 0.656264 0.678448C0.957014 0.377998 1.40102 0.220125 1.78202 0C1.88252 0 1.98301 0 2.12176 0ZM6.48451 4.86382C5.47201 5.04472 4.46026 5.22569 3.49502 5.39819C4.24126 6.28522 6.76576 5.88847 7.73176 5.11882C7.30351 5.0433 7.02976 4.5843 6.48451 4.86382ZM7.60275 3.13005C7.647 3.29332 7.65376 3.48465 7.74901 3.60885C7.80151 3.67777 8.07301 3.69045 8.11951 3.6306C8.22301 3.4965 8.34076 3.25867 8.28601 3.13912C8.14351 2.82652 7.8825 2.85202 7.60275 3.13005Z" fill="white"/>
</svg>
