<svg width="35" height="35" viewBox="0 0 35 35" fill="none" xmlns="http://www.w3.org/2000/svg">
<path d="M18.9583 10.3703C18.9583 10.3625 18.9651 10.3563 18.9729 10.3571C20.3692 10.6432 21.6503 11.334 22.6566 12.3434C23.6651 13.3517 24.3562 14.6333 24.6443 16.03C24.841 17.0002 24.8405 18 24.6429 18.97C24.4241 20.0384 23.9683 21.0394 23.314 21.9014C22.9797 22.3419 22.9726 22.9726 23.3636 23.3637L24.0099 24.01C24.4005 24.4006 25.0382 24.4033 25.3887 23.9763C26.437 22.6991 27.1637 21.1827 27.4998 19.5548C27.7794 18.1987 27.7794 16.7999 27.4998 15.4438C27.1008 13.4872 26.1334 11.6919 24.7187 10.2827C23.7899 9.35059 22.6889 8.60767 21.4768 8.09523C20.859 7.83365 20.2166 7.63433 19.5591 7.50023C19.2171 7.43033 18.9583 7.14952 18.9583 6.80043V5.3309C18.9583 4.44 17.8812 3.99383 17.2512 4.62379L13.8321 8.04291C13.4416 8.43344 13.4416 9.0666 13.8321 9.45713L17.2512 12.8762C17.8812 13.5062 18.9583 13.06 18.9583 12.1691V10.3703ZM8.09372 21.4725C8.34747 22.0734 8.66538 22.6567 9.0358 23.2079C9.39893 23.7475 9.81893 24.255 10.2812 24.7159C11.2119 25.6468 12.313 26.39 13.5246 26.9048C14.1443 27.1673 14.7904 27.3671 15.4423 27.4998C15.8624 27.5854 16.1831 27.9345 16.1831 28.3633V29.4927C16.1831 30.3836 17.2602 30.8298 17.8902 30.1998L21.3093 26.7807C21.6998 26.3901 21.6998 25.757 21.3093 25.3665L17.8902 21.9473C17.2602 21.3174 16.1831 21.7635 16.1831 22.6544V24.502C16.1831 24.584 16.107 24.6612 16.0271 24.6429C14.6308 24.3568 13.3496 23.666 12.3433 22.6567C11.6653 21.9801 11.1274 21.1764 10.7604 20.2916C10.3935 19.4068 10.2046 18.4583 10.2048 17.5004C10.2049 16.5426 10.394 15.5941 10.7612 14.7095C11.0002 14.1338 11.3115 13.5924 11.6867 13.0981C12.0209 12.6579 12.0279 12.0277 11.6372 11.6368L10.9894 10.9885C10.5991 10.5979 9.96167 10.5948 9.61097 11.0214C8.98937 11.7774 8.47845 12.6202 8.09518 13.5246C7.56314 14.7824 7.28986 16.1344 7.29163 17.5C7.2907 18.8645 7.56344 20.2153 8.09372 21.4725Z" fill="#6E6E6E"/>
</svg>
